<svg width="84" height="30" viewBox="0 0 84 30" fill="none" xmlns="http://www.w3.org/2000/svg">
<path d="M15.478 29.44C12.438 29.44 9.83801 28.84 7.67801 27.64C5.51801 26.44 3.85134 24.76 2.67801 22.6C1.53134 20.4133 0.958008 17.84 0.958008 14.88C0.958008 12.6667 1.27801 10.68 1.91801 8.92C2.58467 7.13333 3.54467 5.61333 4.79801 4.36C6.05134 3.08 7.57134 2.09333 9.35801 1.4C11.1713 0.706665 13.2113 0.359999 15.478 0.359999C16.8113 0.359999 18.158 0.533333 19.518 0.88C20.9047 1.2 22.1047 1.66666 23.118 2.28C23.7847 2.65333 24.238 3.12 24.478 3.68C24.718 4.24 24.7847 4.8 24.678 5.36C24.598 5.92 24.3713 6.4 23.998 6.8C23.6513 7.2 23.2113 7.45333 22.678 7.56C22.1447 7.66667 21.5447 7.54667 20.878 7.2C20.078 6.72 19.238 6.37333 18.358 6.16C17.478 5.94666 16.5847 5.84 15.678 5.84C13.8913 5.84 12.3847 6.2 11.158 6.92C9.95801 7.61333 9.05134 8.62667 8.43801 9.96C7.82468 11.2933 7.51801 12.9333 7.51801 14.88C7.51801 16.8 7.82468 18.44 8.43801 19.8C9.05134 21.16 9.95801 22.2 11.158 22.92C12.3847 23.6133 13.8913 23.96 15.678 23.96C16.5313 23.96 17.398 23.8533 18.278 23.64C19.1847 23.4267 20.0513 23.0933 20.878 22.64C21.5713 22.2933 22.1847 22.1733 22.718 22.28C23.278 22.36 23.7313 22.6 24.078 23C24.4513 23.3733 24.678 23.8267 24.758 24.36C24.8647 24.8933 24.8113 25.4267 24.598 25.96C24.3847 26.4933 23.9847 26.9467 23.398 27.32C22.4113 27.9867 21.198 28.5067 19.758 28.88C18.318 29.2533 16.8913 29.44 15.478 29.44ZM32.3818 29C31.3418 29 30.5418 28.72 29.9818 28.16C29.4218 27.6 29.1418 26.8 29.1418 25.76V4.04C29.1418 3 29.4218 2.2 29.9818 1.64C30.5418 1.08 31.3418 0.799998 32.3818 0.799998H42.0618C44.0618 0.799998 45.7684 1.09333 47.1818 1.68C48.5951 2.26667 49.6618 3.10667 50.3818 4.2C51.1284 5.29333 51.5018 6.6 51.5018 8.12C51.5018 9.8 51.0218 11.2267 50.0618 12.4C49.1018 13.5733 47.7818 14.36 46.1018 14.76V14.12C48.0484 14.4667 49.5551 15.24 50.6218 16.44C51.7151 17.6133 52.2618 19.1467 52.2618 21.04C52.2618 23.5467 51.3951 25.5067 49.6618 26.92C47.9284 28.3067 45.5418 29 42.5018 29H32.3818ZM35.0618 24.4H41.6618C43.2618 24.4 44.4351 24.0933 45.1818 23.48C45.9284 22.84 46.3018 21.9067 46.3018 20.68C46.3018 19.4533 45.9284 18.5333 45.1818 17.92C44.4351 17.3067 43.2618 17 41.6618 17H35.0618V24.4ZM35.0618 12.4H40.9818C42.5284 12.4 43.6751 12.1067 44.4218 11.52C45.1684 10.9333 45.5418 10.0533 45.5418 8.88C45.5418 7.73333 45.1684 6.86667 44.4218 6.28C43.6751 5.69333 42.5284 5.4 40.9818 5.4H35.0618V12.4ZM60.1943 29C59.1543 29 58.3543 28.72 57.7943 28.16C57.2343 27.6 56.9543 26.8 56.9543 25.76V4.04C56.9543 3 57.2343 2.2 57.7943 1.64C58.3543 1.08 59.1543 0.799998 60.1943 0.799998H67.9943C72.8209 0.799998 76.5409 2.02667 79.1543 4.48C81.7943 6.90667 83.1143 10.3733 83.1143 14.88C83.1143 17.1467 82.7676 19.16 82.0743 20.92C81.4076 22.6533 80.4343 24.12 79.1543 25.32C77.8743 26.52 76.3009 27.44 74.4343 28.08C72.5676 28.6933 70.4209 29 67.9943 29H60.1943ZM63.1543 23.92H67.6343C69.1543 23.92 70.4743 23.7333 71.5943 23.36C72.7143 22.9867 73.6476 22.4267 74.3943 21.68C75.1409 20.9333 75.7009 20 76.0743 18.88C76.4476 17.7333 76.6343 16.4 76.6343 14.88C76.6343 11.84 75.8743 9.58667 74.3543 8.12C72.8609 6.62667 70.6209 5.88 67.6343 5.88H63.1543V23.92Z" fill="#DA9D27"/>
</svg>
