<svg width="131" height="64" viewBox="0 0 131 64" fill="none" xmlns="http://www.w3.org/2000/svg">
<path d="M23.2813 50.616C19.0253 50.616 15.3853 49.776 12.3613 48.096C9.33732 46.416 7.00399 44.064 5.36132 41.04C3.75599 37.9787 2.95332 34.376 2.95332 30.232C2.95332 27.1333 3.40132 24.352 4.29732 21.888C5.23065 19.3867 6.57465 17.2587 8.32932 15.504C10.084 13.712 12.212 12.3307 14.7133 11.36C17.252 10.3893 20.108 9.904 23.2813 9.904C25.148 9.904 27.0333 10.1467 28.9373 10.632C30.8787 11.08 32.5587 11.7333 33.9773 12.592C34.9107 13.1147 35.5453 13.768 35.8813 14.552C36.2173 15.336 36.3107 16.12 36.1613 16.904C36.0493 17.688 35.732 18.36 35.2093 18.92C34.724 19.48 34.108 19.8347 33.3613 19.984C32.6147 20.1333 31.7747 19.9653 30.8413 19.48C29.7213 18.808 28.5453 18.3227 27.3133 18.024C26.0813 17.7253 24.8307 17.576 23.5613 17.576C21.06 17.576 18.9507 18.08 17.2333 19.088C15.5533 20.0587 14.284 21.4773 13.4253 23.344C12.5667 25.2107 12.1373 27.5067 12.1373 30.232C12.1373 32.92 12.5667 35.216 13.4253 37.12C14.284 39.024 15.5533 40.48 17.2333 41.488C18.9507 42.4587 21.06 42.944 23.5613 42.944C24.756 42.944 25.9693 42.7947 27.2013 42.496C28.4707 42.1973 29.684 41.7307 30.8413 41.096C31.812 40.6107 32.6707 40.4427 33.4173 40.592C34.2013 40.704 34.836 41.04 35.3213 41.6C35.844 42.1227 36.1613 42.7573 36.2733 43.504C36.4227 44.2507 36.348 44.9973 36.0493 45.744C35.7507 46.4907 35.1907 47.1253 34.3693 47.648C32.988 48.5813 31.2893 49.3093 29.2733 49.832C27.2573 50.3547 25.26 50.616 23.2813 50.616ZM46.9466 50C45.4906 50 44.3706 49.608 43.5866 48.824C42.8026 48.04 42.4106 46.92 42.4106 45.464V15.056C42.4106 13.6 42.8026 12.48 43.5866 11.696C44.3706 10.912 45.4906 10.52 46.9466 10.52H60.4986C63.2986 10.52 65.6879 10.9307 67.6666 11.752C69.6452 12.5733 71.1386 13.7493 72.1466 15.28C73.1919 16.8107 73.7146 18.64 73.7146 20.768C73.7146 23.12 73.0426 25.1173 71.6986 26.76C70.3546 28.4027 68.5066 29.504 66.1546 30.064V29.168C68.8799 29.6533 70.9892 30.736 72.4826 32.416C74.0132 34.0587 74.7786 36.2053 74.7786 38.856C74.7786 42.3653 73.5652 45.1093 71.1386 47.088C68.7119 49.0293 65.3706 50 61.1146 50H46.9466ZM50.6986 43.56H59.9386C62.1786 43.56 63.8212 43.1307 64.8666 42.272C65.9119 41.376 66.4346 40.0693 66.4346 38.352C66.4346 36.6347 65.9119 35.3467 64.8666 34.488C63.8212 33.6293 62.1786 33.2 59.9386 33.2H50.6986V43.56ZM50.6986 26.76H58.9866C61.1519 26.76 62.7572 26.3493 63.8026 25.528C64.8479 24.7067 65.3706 23.4747 65.3706 21.832C65.3706 20.2267 64.8479 19.0133 63.8026 18.192C62.7572 17.3707 61.1519 16.96 58.9866 16.96H50.6986V26.76ZM85.8841 50C84.4281 50 83.3081 49.608 82.5241 48.824C81.7401 48.04 81.3481 46.92 81.3481 45.464V15.056C81.3481 13.6 81.7401 12.48 82.5241 11.696C83.3081 10.912 84.4281 10.52 85.8841 10.52H96.8041C103.561 10.52 108.769 12.2373 112.428 15.672C116.124 19.0693 117.972 23.9227 117.972 30.232C117.972 33.4053 117.487 36.224 116.516 38.688C115.583 41.1147 114.22 43.168 112.428 44.848C110.636 46.528 108.433 47.816 105.82 48.712C103.207 49.5707 100.201 50 96.8041 50H85.8841ZM90.0281 42.888H96.3001C98.4281 42.888 100.276 42.6267 101.844 42.104C103.412 41.5813 104.719 40.7973 105.764 39.752C106.809 38.7067 107.593 37.4 108.116 35.832C108.639 34.2267 108.9 32.36 108.9 30.232C108.9 25.976 107.836 22.8213 105.708 20.768C103.617 18.6773 100.481 17.632 96.3001 17.632H90.0281V42.888Z" fill="#DA9D27"/>
</svg>
