<svg width="131" height="80" viewBox="0 0 131 80" fill="none" xmlns="http://www.w3.org/2000/svg">
<g clip-path="url(#clip0_60_2818)">
<path d="M27.2813 59.116C23.0253 59.116 19.3853 58.276 16.3613 56.596C13.3373 54.916 11.004 52.564 9.36132 49.54C7.75599 46.4787 6.95332 42.876 6.95332 38.732C6.95332 35.6333 7.40132 32.852 8.29732 30.388C9.23065 27.8867 10.5747 25.7587 12.3293 24.004C14.084 22.212 16.212 20.8307 18.7133 19.86C21.252 18.8893 24.108 18.404 27.2813 18.404C29.148 18.404 31.0333 18.6467 32.9373 19.132C34.8787 19.58 36.5587 20.2333 37.9773 21.092C38.9107 21.6147 39.5453 22.268 39.8813 23.052C40.2173 23.836 40.3107 24.62 40.1613 25.404C40.0493 26.188 39.732 26.86 39.2093 27.42C38.724 27.98 38.108 28.3347 37.3613 28.484C36.6147 28.6333 35.7747 28.4653 34.8413 27.98C33.7213 27.308 32.5453 26.8227 31.3133 26.524C30.0813 26.2253 28.8307 26.076 27.5613 26.076C25.06 26.076 22.9507 26.58 21.2333 27.588C19.5533 28.5587 18.284 29.9773 17.4253 31.844C16.5667 33.7107 16.1373 36.0067 16.1373 38.732C16.1373 41.42 16.5667 43.716 17.4253 45.62C18.284 47.524 19.5533 48.98 21.2333 49.988C22.9507 50.9587 25.06 51.444 27.5613 51.444C28.756 51.444 29.9693 51.2947 31.2013 50.996C32.4707 50.6973 33.684 50.2307 34.8413 49.596C35.812 49.1107 36.6707 48.9427 37.4173 49.092C38.2013 49.204 38.836 49.54 39.3213 50.1C39.844 50.6227 40.1613 51.2573 40.2733 52.004C40.4227 52.7507 40.348 53.4973 40.0493 54.244C39.7507 54.9907 39.1907 55.6253 38.3693 56.148C36.988 57.0813 35.2893 57.8093 33.2733 58.332C31.2573 58.8547 29.26 59.116 27.2813 59.116ZM50.9466 58.5C49.4906 58.5 48.3706 58.108 47.5866 57.324C46.8026 56.54 46.4106 55.42 46.4106 53.964V23.556C46.4106 22.1 46.8026 20.98 47.5866 20.196C48.3706 19.412 49.4906 19.02 50.9466 19.02H64.4986C67.2986 19.02 69.6879 19.4307 71.6666 20.252C73.6452 21.0733 75.1386 22.2493 76.1466 23.78C77.1919 25.3107 77.7146 27.14 77.7146 29.268C77.7146 31.62 77.0426 33.6173 75.6986 35.26C74.3546 36.9027 72.5066 38.004 70.1546 38.564V37.668C72.8799 38.1533 74.9892 39.236 76.4826 40.916C78.0132 42.5587 78.7786 44.7053 78.7786 47.356C78.7786 50.8653 77.5652 53.6093 75.1386 55.588C72.7119 57.5293 69.3706 58.5 65.1146 58.5H50.9466ZM54.6986 52.06H63.9386C66.1786 52.06 67.8212 51.6307 68.8666 50.772C69.9119 49.876 70.4346 48.5693 70.4346 46.852C70.4346 45.1347 69.9119 43.8467 68.8666 42.988C67.8212 42.1293 66.1786 41.7 63.9386 41.7H54.6986V52.06ZM54.6986 35.26H62.9866C65.1519 35.26 66.7572 34.8493 67.8026 34.028C68.8479 33.2067 69.3706 31.9747 69.3706 30.332C69.3706 28.7267 68.8479 27.5133 67.8026 26.692C66.7572 25.8707 65.1519 25.46 62.9866 25.46H54.6986V35.26ZM89.8841 58.5C88.4281 58.5 87.3081 58.108 86.5241 57.324C85.7401 56.54 85.3481 55.42 85.3481 53.964V23.556C85.3481 22.1 85.7401 20.98 86.5241 20.196C87.3081 19.412 88.4281 19.02 89.8841 19.02H100.804C107.561 19.02 112.769 20.7373 116.428 24.172C120.124 27.5693 121.972 32.4227 121.972 38.732C121.972 41.9053 121.487 44.724 120.516 47.188C119.583 49.6147 118.22 51.668 116.428 53.348C114.636 55.028 112.433 56.316 109.82 57.212C107.207 58.0707 104.201 58.5 100.804 58.5H89.8841ZM94.0281 51.388H100.3C102.428 51.388 104.276 51.1267 105.844 50.604C107.412 50.0813 108.719 49.2973 109.764 48.252C110.809 47.2067 111.593 45.9 112.116 44.332C112.639 42.7267 112.9 40.86 112.9 38.732C112.9 34.476 111.836 31.3213 109.708 29.268C107.617 27.1773 104.481 26.132 100.3 26.132H94.0281V51.388Z" fill="#DA9D27"/>
<path d="M5.61732 73.072C5.21199 73.072 4.83865 73.024 4.49732 72.928C4.15599 72.832 3.86265 72.6933 3.61732 72.512C3.53732 72.4587 3.48399 72.3947 3.45732 72.32C3.43065 72.2453 3.42532 72.1733 3.44132 72.104C3.45732 72.0347 3.48932 71.9787 3.53732 71.936C3.59065 71.888 3.65465 71.8613 3.72932 71.856C3.80399 71.8453 3.88399 71.8667 3.96932 71.92C4.11865 72.0213 4.27599 72.104 4.44132 72.168C4.60665 72.232 4.78265 72.28 4.96932 72.312C5.15599 72.344 5.35332 72.36 5.56132 72.36C5.88665 72.36 6.15332 72.3253 6.36132 72.256C6.56932 72.1813 6.72132 72.072 6.81732 71.928C6.91865 71.784 6.96932 71.6027 6.96932 71.384C6.96932 71.0747 6.87332 70.8453 6.68132 70.696C6.48932 70.5467 6.19332 70.472 5.79332 70.472H4.72132C4.60399 70.472 4.51332 70.4453 4.44932 70.392C4.39065 70.3333 4.36132 70.248 4.36132 70.136C4.36132 70.0347 4.39065 69.9547 4.44932 69.896C4.51332 69.8373 4.60399 69.808 4.72132 69.808H5.66532C6.05465 69.808 6.34532 69.7333 6.53732 69.584C6.73465 69.4347 6.83332 69.2133 6.83332 68.92C6.83332 68.7333 6.78532 68.5707 6.68932 68.432C6.59865 68.288 6.45999 68.1787 6.27332 68.104C6.08665 68.0293 5.85199 67.992 5.56932 67.992C5.31332 67.992 5.05999 68.0267 4.80932 68.096C4.55865 68.1653 4.32932 68.2667 4.12132 68.4C4.03065 68.4533 3.94799 68.4773 3.87332 68.472C3.79865 68.4613 3.73732 68.432 3.68932 68.384C3.64665 68.336 3.61732 68.2773 3.60132 68.208C3.58532 68.1333 3.59065 68.0613 3.61732 67.992C3.64932 67.9227 3.70532 67.8613 3.78532 67.808C4.04132 67.632 4.32932 67.5013 4.64932 67.416C4.97465 67.3307 5.30799 67.288 5.64932 67.288C6.09732 67.288 6.46799 67.352 6.76132 67.48C7.05999 67.608 7.28399 67.7893 7.43332 68.024C7.58265 68.2533 7.65732 68.5227 7.65732 68.832C7.65732 69.1733 7.55599 69.4613 7.35332 69.696C7.15065 69.9307 6.87599 70.088 6.52932 70.168V70.048C6.92399 70.1013 7.23332 70.2507 7.45732 70.496C7.68132 70.736 7.79332 71.0507 7.79332 71.44C7.79332 71.7707 7.71332 72.0613 7.55332 72.312C7.39865 72.5573 7.16132 72.7467 6.84132 72.88C6.52132 73.008 6.11332 73.072 5.61732 73.072ZM9.79088 74.496C9.69488 74.496 9.61488 74.4693 9.55088 74.416C9.49222 74.368 9.45755 74.3013 9.44688 74.216C9.44155 74.136 9.45755 74.048 9.49488 73.952L10.0389 72.728V73.072L8.54288 69.592C8.50555 69.496 8.49222 69.4053 8.50288 69.32C8.51355 69.2347 8.55355 69.168 8.62288 69.12C8.69222 69.0667 8.78555 69.04 8.90288 69.04C9.00422 69.04 9.08422 69.064 9.14288 69.112C9.20155 69.16 9.25488 69.2427 9.30288 69.36L10.5109 72.344H10.2869L11.5109 69.36C11.5589 69.2373 11.6149 69.1547 11.6789 69.112C11.7429 69.064 11.8309 69.04 11.9429 69.04C12.0389 69.04 12.1135 69.0667 12.1669 69.12C12.2255 69.168 12.2602 69.2347 12.2709 69.32C12.2869 69.4 12.2735 69.488 12.2309 69.584L10.2309 74.184C10.1775 74.3067 10.1162 74.3893 10.0469 74.432C9.98288 74.4747 9.89755 74.496 9.79088 74.496ZM14.7862 73.072C14.3862 73.072 14.0395 72.9893 13.7462 72.824C13.4582 72.6533 13.2342 72.416 13.0742 72.112C12.9142 71.8027 12.8342 71.44 12.8342 71.024C12.8342 70.7147 12.8795 70.4373 12.9702 70.192C13.0609 69.9413 13.1889 69.7307 13.3542 69.56C13.5249 69.3893 13.7302 69.2587 13.9702 69.168C14.2155 69.072 14.4875 69.024 14.7862 69.024C14.9729 69.024 15.1675 69.0533 15.3702 69.112C15.5782 69.1653 15.7702 69.256 15.9462 69.384C16.0155 69.4267 16.0582 69.48 16.0742 69.544C16.0955 69.6027 16.0982 69.664 16.0822 69.728C16.0715 69.792 16.0422 69.848 15.9942 69.896C15.9515 69.9387 15.8982 69.9653 15.8342 69.976C15.7702 69.9813 15.7009 69.9627 15.6262 69.92C15.4982 69.8293 15.3675 69.7653 15.2342 69.728C15.1009 69.6853 14.9729 69.664 14.8502 69.664C14.6582 69.664 14.4875 69.696 14.3382 69.76C14.1942 69.8187 14.0715 69.9067 13.9702 70.024C13.8689 70.136 13.7915 70.2773 13.7382 70.448C13.6902 70.6187 13.6662 70.8133 13.6662 71.032C13.6662 71.4693 13.7675 71.8133 13.9702 72.064C14.1782 72.3093 14.4715 72.432 14.8502 72.432C14.9729 72.432 15.1009 72.4133 15.2342 72.376C15.3675 72.3387 15.4982 72.2747 15.6262 72.184C15.7009 72.1413 15.7702 72.1253 15.8342 72.136C15.8982 72.1467 15.9489 72.176 15.9862 72.224C16.0289 72.2667 16.0555 72.32 16.0662 72.384C16.0822 72.4427 16.0795 72.504 16.0582 72.568C16.0369 72.632 15.9915 72.6853 15.9222 72.728C15.7515 72.8507 15.5649 72.9387 15.3622 72.992C15.1649 73.0453 14.9729 73.072 14.7862 73.072ZM18.1103 73.056C17.9823 73.056 17.881 73.0213 17.8063 72.952C17.737 72.8773 17.7023 72.776 17.7023 72.648V69.744H16.6143C16.3797 69.744 16.2623 69.6347 16.2623 69.416C16.2623 69.32 16.2943 69.2427 16.3583 69.184C16.4223 69.1253 16.5077 69.096 16.6143 69.096H19.5983C19.833 69.096 19.9503 69.2027 19.9503 69.416C19.9503 69.5227 19.9183 69.6053 19.8543 69.664C19.7957 69.7173 19.7103 69.744 19.5983 69.744H18.5103V72.648C18.5103 72.776 18.4757 72.8773 18.4063 72.952C18.3423 73.0213 18.2437 73.056 18.1103 73.056ZM20.9506 74.496C20.8226 74.496 20.7239 74.4613 20.6546 74.392C20.5852 74.3227 20.5506 74.2213 20.5506 74.088V69.448C20.5506 69.3147 20.5852 69.2133 20.6546 69.144C20.7239 69.0747 20.8199 69.04 20.9426 69.04C21.0706 69.04 21.1692 69.0747 21.2386 69.144C21.3079 69.2133 21.3426 69.3147 21.3426 69.448V70.144L21.2546 69.976C21.3399 69.688 21.5079 69.4587 21.7586 69.288C22.0092 69.112 22.3052 69.024 22.6466 69.024C22.9932 69.024 23.2946 69.1067 23.5506 69.272C23.8119 69.4373 24.0119 69.6693 24.1506 69.968C24.2946 70.2667 24.3666 70.6267 24.3666 71.048C24.3666 71.4587 24.2946 71.8187 24.1506 72.128C24.0119 72.432 23.8146 72.6667 23.5586 72.832C23.3026 72.992 22.9986 73.072 22.6466 73.072C22.3106 73.072 22.0172 72.9867 21.7666 72.816C21.5159 72.6453 21.3479 72.4187 21.2626 72.136H21.3586V74.088C21.3586 74.2213 21.3212 74.3227 21.2466 74.392C21.1772 74.4613 21.0786 74.496 20.9506 74.496ZM22.4466 72.448C22.6706 72.448 22.8652 72.3947 23.0306 72.288C23.1959 72.1813 23.3239 72.024 23.4146 71.816C23.5052 71.608 23.5506 71.352 23.5506 71.048C23.5506 70.5893 23.4492 70.2427 23.2466 70.008C23.0492 69.7733 22.7826 69.656 22.4466 69.656C22.2279 69.656 22.0332 69.7093 21.8626 69.816C21.6972 69.9173 21.5692 70.072 21.4786 70.28C21.3879 70.488 21.3426 70.744 21.3426 71.048C21.3426 71.5013 21.4439 71.848 21.6466 72.088C21.8492 72.328 22.1159 72.448 22.4466 72.448ZM25.7631 73.048C25.6351 73.048 25.5364 73.0107 25.4671 72.936C25.3977 72.856 25.3631 72.7467 25.3631 72.608V69.488C25.3631 69.3493 25.3977 69.2427 25.4671 69.168C25.5364 69.0933 25.6351 69.056 25.7631 69.056C25.8911 69.056 25.9897 69.0933 26.0591 69.168C26.1337 69.2427 26.1711 69.3493 26.1711 69.488V72.608C26.1711 72.7467 26.1364 72.856 26.0671 72.936C25.9977 73.0107 25.8964 73.048 25.7631 73.048ZM25.7631 68.224C25.6031 68.224 25.4777 68.184 25.3871 68.104C25.3017 68.024 25.2591 67.912 25.2591 67.768C25.2591 67.6187 25.3017 67.5067 25.3871 67.432C25.4777 67.352 25.6031 67.312 25.7631 67.312C25.9231 67.312 26.0457 67.352 26.1311 67.432C26.2217 67.5067 26.2671 67.6187 26.2671 67.768C26.2671 67.912 26.2217 68.024 26.1311 68.104C26.0457 68.184 25.9231 68.224 25.7631 68.224ZM30.2743 73.056C30.141 73.056 30.0397 73.0187 29.9703 72.944C29.901 72.8693 29.8663 72.7627 29.8663 72.624V71.496C29.7223 71.576 29.5677 71.6373 29.4023 71.68C29.2423 71.7227 29.0717 71.744 28.8903 71.744C28.325 71.744 27.9063 71.608 27.6343 71.336C27.3623 71.064 27.2263 70.6507 27.2263 70.096V69.448C27.2263 69.3147 27.261 69.2133 27.3303 69.144C27.3997 69.0747 27.4983 69.04 27.6263 69.04C27.7543 69.04 27.853 69.0747 27.9223 69.144C27.997 69.2133 28.0343 69.3147 28.0343 69.448V70.032C28.0343 70.4 28.109 70.6667 28.2583 70.832C28.413 70.9973 28.6663 71.08 29.0183 71.08C29.189 71.08 29.341 71.0613 29.4743 71.024C29.6077 70.9813 29.7357 70.9173 29.8583 70.832V69.464C29.8583 69.1813 29.9943 69.04 30.2663 69.04C30.3997 69.04 30.4983 69.0773 30.5623 69.152C30.6317 69.2213 30.6663 69.3253 30.6663 69.464V72.624C30.6663 72.7627 30.6343 72.8693 30.5703 72.944C30.5063 73.0187 30.4077 73.056 30.2743 73.056ZM32.2865 73.048C32.1585 73.048 32.0598 73.0107 31.9905 72.936C31.9212 72.856 31.8865 72.7467 31.8865 72.608V69.488C31.8865 69.3493 31.9212 69.2427 31.9905 69.168C32.0598 69.0933 32.1585 69.056 32.2865 69.056C32.4145 69.056 32.5132 69.0933 32.5825 69.168C32.6572 69.2427 32.6945 69.3493 32.6945 69.488V72.608C32.6945 72.7467 32.6598 72.856 32.5905 72.936C32.5212 73.0107 32.4198 73.048 32.2865 73.048ZM32.2865 68.224C32.1265 68.224 32.0012 68.184 31.9105 68.104C31.8252 68.024 31.7825 67.912 31.7825 67.768C31.7825 67.6187 31.8252 67.5067 31.9105 67.432C32.0012 67.352 32.1265 67.312 32.2865 67.312C32.4465 67.312 32.5692 67.352 32.6545 67.432C32.7452 67.5067 32.7905 67.6187 32.7905 67.768C32.7905 67.912 32.7452 68.024 32.6545 68.104C32.5692 68.184 32.4465 68.224 32.2865 68.224ZM37.2431 73.056C37.1151 73.056 37.0138 73.0213 36.9391 72.952C36.8698 72.8773 36.8351 72.776 36.8351 72.648V69.744H35.7471C35.5125 69.744 35.3951 69.6347 35.3951 69.416C35.3951 69.32 35.4271 69.2427 35.4911 69.184C35.5551 69.1253 35.6405 69.096 35.7471 69.096H38.7311C38.9658 69.096 39.0831 69.2027 39.0831 69.416C39.0831 69.5227 39.0511 69.6053 38.9871 69.664C38.9285 69.7173 38.8431 69.744 38.7311 69.744H37.6431V72.648C37.6431 72.776 37.6085 72.8773 37.5391 72.952C37.4751 73.0213 37.3765 73.056 37.2431 73.056ZM40.9314 73.072C40.6594 73.072 40.414 73.0187 40.1954 72.912C39.982 72.8053 39.814 72.6613 39.6914 72.48C39.5687 72.2987 39.5074 72.0933 39.5074 71.864C39.5074 71.576 39.5794 71.3493 39.7234 71.184C39.8727 71.0133 40.1154 70.8933 40.4514 70.824C40.7927 70.7493 41.2514 70.712 41.8274 70.712H42.2034V71.208H41.8354C41.4514 71.208 41.1474 71.2267 40.9234 71.264C40.6994 71.3013 40.5394 71.3653 40.4434 71.456C40.3527 71.5413 40.3074 71.6613 40.3074 71.816C40.3074 72.0187 40.3767 72.184 40.5154 72.312C40.654 72.4347 40.846 72.496 41.0914 72.496C41.2887 72.496 41.462 72.4507 41.6114 72.36C41.7607 72.264 41.878 72.136 41.9634 71.976C42.054 71.816 42.0994 71.632 42.0994 71.424V70.504C42.0994 70.2 42.0354 69.9813 41.9074 69.848C41.7794 69.7147 41.5687 69.648 41.2754 69.648C41.1047 69.648 40.926 69.6693 40.7394 69.712C40.558 69.7547 40.3687 69.8267 40.1714 69.928C40.0807 69.9707 40.0034 69.984 39.9394 69.968C39.8754 69.952 39.8247 69.9173 39.7874 69.864C39.75 69.8053 39.7287 69.744 39.7234 69.68C39.7234 69.6107 39.7394 69.544 39.7714 69.48C39.8087 69.416 39.87 69.368 39.9554 69.336C40.19 69.224 40.422 69.144 40.6514 69.096C40.8807 69.048 41.0967 69.024 41.2994 69.024C41.6567 69.024 41.95 69.08 42.1794 69.192C42.414 69.304 42.5874 69.4747 42.6994 69.704C42.8114 69.9333 42.8674 70.2293 42.8674 70.592V72.648C42.8674 72.776 42.8354 72.8773 42.7714 72.952C42.7074 73.0213 42.614 73.056 42.4914 73.056C42.374 73.056 42.2807 73.0213 42.2114 72.952C42.142 72.8773 42.1074 72.776 42.1074 72.648V72.128H42.1794C42.1367 72.3253 42.0567 72.496 41.9394 72.64C41.8274 72.7787 41.686 72.8853 41.5154 72.96C41.3447 73.0347 41.15 73.072 40.9314 73.072ZM46.5834 73.048C46.4554 73.048 46.3567 73.0107 46.2874 72.936C46.218 72.856 46.1834 72.7467 46.1834 72.608V69.488C46.1834 69.3493 46.218 69.2427 46.2874 69.168C46.3567 69.0933 46.4554 69.056 46.5834 69.056C46.7114 69.056 46.81 69.0933 46.8794 69.168C46.954 69.2427 46.9914 69.3493 46.9914 69.488V72.608C46.9914 72.7467 46.9567 72.856 46.8874 72.936C46.818 73.0107 46.7167 73.048 46.5834 73.048ZM46.5834 68.224C46.4234 68.224 46.298 68.184 46.2074 68.104C46.122 68.024 46.0794 67.912 46.0794 67.768C46.0794 67.6187 46.122 67.5067 46.2074 67.432C46.298 67.352 46.4234 67.312 46.5834 67.312C46.7434 67.312 46.866 67.352 46.9514 67.432C47.042 67.5067 47.0874 67.6187 47.0874 67.768C47.0874 67.912 47.042 68.024 46.9514 68.104C46.866 68.184 46.7434 68.224 46.5834 68.224ZM48.6146 73.056C48.4866 73.056 48.3853 73.0213 48.3106 72.952C48.2413 72.8773 48.2066 72.776 48.2066 72.648V69.448C48.2066 69.3093 48.2413 69.208 48.3106 69.144C48.3853 69.0747 48.4866 69.04 48.6146 69.04C48.7426 69.04 48.8413 69.0747 48.9106 69.144C48.98 69.208 49.0146 69.3093 49.0146 69.448V70.672H50.9586V69.448C50.9586 69.3093 50.9906 69.208 51.0546 69.144C51.124 69.0747 51.2253 69.04 51.3586 69.04C51.4866 69.04 51.5853 69.0747 51.6546 69.144C51.7293 69.208 51.7666 69.3093 51.7666 69.448V72.648C51.7666 72.776 51.7293 72.8773 51.6546 72.952C51.5853 73.0213 51.4866 73.056 51.3586 73.056C51.2253 73.056 51.124 73.0213 51.0546 72.952C50.9906 72.8773 50.9586 72.776 50.9586 72.648V71.312H49.0146V72.648C49.0146 72.776 48.98 72.8773 48.9106 72.952C48.8466 73.0213 48.748 73.056 48.6146 73.056ZM52.9243 74.096C52.8176 74.096 52.7323 74.064 52.6683 74C52.6043 73.936 52.5723 73.8453 52.5723 73.728V72.744C52.5723 72.488 52.7029 72.36 52.9643 72.36H53.3723L52.8923 72.528C53.0363 72.336 53.1509 72.1333 53.2363 71.92C53.3216 71.7067 53.3829 71.464 53.4203 71.192C53.4629 70.9147 53.4843 70.5947 53.4843 70.232V69.552C53.4843 69.408 53.5216 69.296 53.5963 69.216C53.6763 69.136 53.7909 69.096 53.9403 69.096H55.9163C56.0603 69.096 56.1723 69.136 56.2523 69.216C56.3323 69.296 56.3723 69.408 56.3723 69.552V72.736L55.9963 72.36H56.6123C56.7349 72.36 56.8283 72.392 56.8923 72.456C56.9616 72.52 56.9963 72.616 56.9963 72.744V73.728C56.9963 73.9733 56.8816 74.096 56.6523 74.096C56.5403 74.096 56.4549 74.064 56.3963 74C56.3376 73.936 56.3083 73.8453 56.3083 73.728V73H53.2683V73.728C53.2683 73.9733 53.1536 74.096 52.9243 74.096ZM53.7563 72.36H55.6043V69.728H54.1883V70.4C54.1883 70.768 54.1509 71.1253 54.0763 71.472C54.0016 71.8187 53.8949 72.1147 53.7563 72.36ZM58.1764 73.056C58.0964 73.056 58.027 73.04 57.9684 73.008C57.915 72.9813 57.8724 72.936 57.8404 72.872C57.8137 72.808 57.8004 72.7253 57.8004 72.624V69.432C57.8004 69.304 57.8324 69.208 57.8964 69.144C57.9604 69.0747 58.051 69.04 58.1684 69.04C58.2857 69.04 58.3764 69.0747 58.4404 69.144C58.5044 69.208 58.5364 69.304 58.5364 69.432V72.2H58.3284L60.4964 69.304C60.5497 69.2347 60.611 69.1733 60.6804 69.12C60.7497 69.0667 60.843 69.04 60.9604 69.04C61.0404 69.04 61.107 69.056 61.1604 69.088C61.2137 69.1147 61.2537 69.16 61.2804 69.224C61.3124 69.288 61.3284 69.3707 61.3284 69.472V72.664C61.3284 72.7867 61.2964 72.8827 61.2324 72.952C61.1737 73.0213 61.0857 73.056 60.9684 73.056C60.8457 73.056 60.7524 73.0213 60.6884 72.952C60.6244 72.8827 60.5924 72.7867 60.5924 72.664V69.896H60.8084L58.6324 72.8C58.5844 72.864 58.5257 72.9227 58.4564 72.976C58.3924 73.0293 58.299 73.056 58.1764 73.056ZM62.9506 73C62.8172 73 62.7159 72.9653 62.6466 72.896C62.5772 72.8213 62.5426 72.72 62.5426 72.592V69.512C62.5426 69.3787 62.5772 69.2773 62.6466 69.208C62.7159 69.1333 62.8172 69.096 62.9506 69.096H64.5346C64.8546 69.096 65.1159 69.136 65.3186 69.216C65.5266 69.296 65.6786 69.4133 65.7746 69.568C65.8706 69.7173 65.9186 69.9013 65.9186 70.12C65.9186 70.3707 65.8332 70.5813 65.6626 70.752C65.4919 70.9173 65.2679 71.016 64.9906 71.048V70.944C65.3266 70.96 65.5852 71.056 65.7666 71.232C65.9532 71.408 66.0466 71.6347 66.0466 71.912C66.0466 72.248 65.9212 72.5147 65.6706 72.712C65.4199 72.904 65.0626 73 64.5986 73H62.9506ZM63.3026 72.48H64.5506C64.7906 72.48 64.9746 72.4293 65.1026 72.328C65.2359 72.2213 65.3026 72.0693 65.3026 71.872C65.3026 71.6747 65.2359 71.5253 65.1026 71.424C64.9746 71.3227 64.7906 71.272 64.5506 71.272H63.3026V72.48ZM63.3026 70.752H64.4786C64.6972 70.752 64.8652 70.7013 64.9826 70.6C65.1052 70.4987 65.1666 70.36 65.1666 70.184C65.1666 70.0027 65.1052 69.864 64.9826 69.768C64.8652 69.672 64.6972 69.624 64.4786 69.624H63.3026V70.752ZM67.3959 73.048C67.2679 73.048 67.1692 73.0107 67.0999 72.936C67.0305 72.856 66.9959 72.7467 66.9959 72.608V69.488C66.9959 69.3493 67.0305 69.2427 67.0999 69.168C67.1692 69.0933 67.2679 69.056 67.3959 69.056C67.5239 69.056 67.6225 69.0933 67.6919 69.168C67.7665 69.2427 67.8039 69.3493 67.8039 69.488V72.608C67.8039 72.7467 67.7692 72.856 67.6999 72.936C67.6305 73.0107 67.5292 73.048 67.3959 73.048ZM67.3959 68.224C67.2359 68.224 67.1105 68.184 67.0199 68.104C66.9345 68.024 66.8919 67.912 66.8919 67.768C66.8919 67.6187 66.9345 67.5067 67.0199 67.432C67.1105 67.352 67.2359 67.312 67.3959 67.312C67.5559 67.312 67.6785 67.352 67.7639 67.432C67.8545 67.5067 67.8999 67.6187 67.8999 67.768C67.8999 67.912 67.8545 68.024 67.7639 68.104C67.6785 68.184 67.5559 68.224 67.3959 68.224ZM68.9711 74.096C68.8645 74.096 68.7791 74.064 68.7151 74C68.6511 73.936 68.6191 73.8453 68.6191 73.728V72.744C68.6191 72.488 68.7498 72.36 69.0111 72.36H69.4191L68.9391 72.528C69.0831 72.336 69.1978 72.1333 69.2831 71.92C69.3685 71.7067 69.4298 71.464 69.4671 71.192C69.5098 70.9147 69.5311 70.5947 69.5311 70.232V69.552C69.5311 69.408 69.5685 69.296 69.6431 69.216C69.7231 69.136 69.8378 69.096 69.9871 69.096H71.9631C72.1071 69.096 72.2191 69.136 72.2991 69.216C72.3791 69.296 72.4191 69.408 72.4191 69.552V72.736L72.0431 72.36H72.6591C72.7818 72.36 72.8751 72.392 72.9391 72.456C73.0085 72.52 73.0431 72.616 73.0431 72.744V73.728C73.0431 73.9733 72.9285 74.096 72.6991 74.096C72.5871 74.096 72.5018 74.064 72.4431 74C72.3845 73.936 72.3551 73.8453 72.3551 73.728V73H69.3151V73.728C69.3151 73.9733 69.2005 74.096 68.9711 74.096ZM69.8031 72.36H71.6511V69.728H70.2351V70.4C70.2351 70.768 70.1978 71.1253 70.1231 71.472C70.0485 71.8187 69.9418 72.1147 69.8031 72.36ZM74.7753 74.496C74.6793 74.496 74.5993 74.4693 74.5353 74.416C74.4766 74.368 74.4419 74.3013 74.4313 74.216C74.4259 74.136 74.4419 74.048 74.4793 73.952L75.0233 72.728V73.072L73.5273 69.592C73.4899 69.496 73.4766 69.4053 73.4873 69.32C73.4979 69.2347 73.5379 69.168 73.6073 69.12C73.6766 69.0667 73.7699 69.04 73.8873 69.04C73.9886 69.04 74.0686 69.064 74.1273 69.112C74.1859 69.16 74.2393 69.2427 74.2873 69.36L75.4953 72.344H75.2713L76.4953 69.36C76.5433 69.2373 76.5993 69.1547 76.6633 69.112C76.7273 69.064 76.8153 69.04 76.9273 69.04C77.0233 69.04 77.0979 69.0667 77.1513 69.12C77.2099 69.168 77.2446 69.2347 77.2553 69.32C77.2713 69.4 77.2579 69.488 77.2153 69.584L75.2153 74.184C75.1619 74.3067 75.1006 74.3893 75.0313 74.432C74.9673 74.4747 74.8819 74.496 74.7753 74.496ZM79.2829 73.072C79.0109 73.072 78.7656 73.0187 78.5469 72.912C78.3336 72.8053 78.1656 72.6613 78.0429 72.48C77.9203 72.2987 77.8589 72.0933 77.8589 71.864C77.8589 71.576 77.9309 71.3493 78.0749 71.184C78.2243 71.0133 78.4669 70.8933 78.8029 70.824C79.1443 70.7493 79.6029 70.712 80.1789 70.712H80.5549V71.208H80.1869C79.8029 71.208 79.4989 71.2267 79.2749 71.264C79.0509 71.3013 78.8909 71.3653 78.7949 71.456C78.7043 71.5413 78.6589 71.6613 78.6589 71.816C78.6589 72.0187 78.7283 72.184 78.8669 72.312C79.0056 72.4347 79.1976 72.496 79.4429 72.496C79.6403 72.496 79.8136 72.4507 79.9629 72.36C80.1123 72.264 80.2296 72.136 80.3149 71.976C80.4056 71.816 80.4509 71.632 80.4509 71.424V70.504C80.4509 70.2 80.3869 69.9813 80.2589 69.848C80.1309 69.7147 79.9203 69.648 79.6269 69.648C79.4563 69.648 79.2776 69.6693 79.0909 69.712C78.9096 69.7547 78.7203 69.8267 78.5229 69.928C78.4323 69.9707 78.3549 69.984 78.2909 69.968C78.2269 69.952 78.1763 69.9173 78.1389 69.864C78.1016 69.8053 78.0803 69.744 78.0749 69.68C78.0749 69.6107 78.0909 69.544 78.1229 69.48C78.1603 69.416 78.2216 69.368 78.3069 69.336C78.5416 69.224 78.7736 69.144 79.0029 69.096C79.2323 69.048 79.4483 69.024 79.6509 69.024C80.0083 69.024 80.3016 69.08 80.5309 69.192C80.7656 69.304 80.9389 69.4747 81.0509 69.704C81.1629 69.9333 81.2189 70.2293 81.2189 70.592V72.648C81.2189 72.776 81.1869 72.8773 81.1229 72.952C81.0589 73.0213 80.9656 73.056 80.8429 73.056C80.7256 73.056 80.6323 73.0213 80.5629 72.952C80.4936 72.8773 80.4589 72.776 80.4589 72.648V72.128H80.5309C80.4883 72.3253 80.4083 72.496 80.2909 72.64C80.1789 72.7787 80.0376 72.8853 79.8669 72.96C79.6963 73.0347 79.5016 73.072 79.2829 73.072ZM85.4736 73.056C85.3456 73.056 85.2469 73.0213 85.1776 72.952C85.1082 72.8773 85.0736 72.776 85.0736 72.648V69.744H83.6576V70.216C83.6576 70.6107 83.6362 70.9627 83.5936 71.272C83.5509 71.576 83.4842 71.84 83.3936 72.064C83.3029 72.288 83.1856 72.4773 83.0416 72.632C82.8976 72.7867 82.7216 72.912 82.5136 73.008C82.4229 73.0453 82.3402 73.056 82.2656 73.04C82.1909 73.024 82.1269 72.992 82.0736 72.944C82.0256 72.8907 81.9936 72.8293 81.9776 72.76C81.9616 72.6907 81.9696 72.6213 82.0016 72.552C82.0336 72.4773 82.0922 72.416 82.1776 72.368C82.3216 72.288 82.4389 72.1867 82.5296 72.064C82.6256 71.9413 82.7002 71.7947 82.7536 71.624C82.8069 71.448 82.8442 71.2427 82.8656 71.008C82.8922 70.7733 82.9056 70.5013 82.9056 70.192V69.552C82.9056 69.408 82.9429 69.296 83.0176 69.216C83.0976 69.136 83.2122 69.096 83.3616 69.096H85.4256C85.5696 69.096 85.6816 69.136 85.7616 69.216C85.8416 69.296 85.8816 69.408 85.8816 69.552V72.648C85.8816 72.776 85.8442 72.8773 85.7696 72.952C85.7002 73.0213 85.6016 73.056 85.4736 73.056ZM87.5053 73C87.3719 73 87.2706 72.9653 87.2013 72.896C87.1319 72.8213 87.0973 72.72 87.0973 72.592V69.448C87.0973 69.3093 87.1319 69.208 87.2013 69.144C87.2759 69.0747 87.3773 69.04 87.5053 69.04C87.6333 69.04 87.7319 69.0747 87.8013 69.144C87.8706 69.208 87.9053 69.3093 87.9053 69.448V70.448H89.0173C89.5186 70.448 89.8999 70.5573 90.1613 70.776C90.4226 70.9893 90.5533 71.3013 90.5533 71.712C90.5533 71.9733 90.4919 72.2027 90.3693 72.4C90.2466 72.592 90.0706 72.7413 89.8413 72.848C89.6119 72.9493 89.3373 73 89.0173 73H87.5053ZM87.9053 72.448H88.9133C89.1906 72.448 89.4066 72.3893 89.5613 72.272C89.7159 72.1493 89.7933 71.9627 89.7933 71.712C89.7933 71.4667 89.7159 71.288 89.5613 71.176C89.4066 71.0587 89.1906 71 88.9133 71H87.9053V72.448ZM91.8568 73.056C91.7288 73.056 91.6275 73.0213 91.5528 72.952C91.4835 72.8773 91.4488 72.776 91.4488 72.648V69.448C91.4488 69.3093 91.4835 69.208 91.5528 69.144C91.6275 69.0747 91.7288 69.04 91.8568 69.04C91.9848 69.04 92.0835 69.0747 92.1528 69.144C92.2222 69.208 92.2568 69.3093 92.2568 69.448V70.672H94.2008V69.448C94.2008 69.3093 94.2328 69.208 94.2968 69.144C94.3662 69.0747 94.4675 69.04 94.6008 69.04C94.7288 69.04 94.8275 69.0747 94.8968 69.144C94.9715 69.208 95.0088 69.3093 95.0088 69.448V72.648C95.0088 72.776 94.9715 72.8773 94.8968 72.952C94.8275 73.0213 94.7288 73.056 94.6008 73.056C94.4675 73.056 94.3662 73.0213 94.2968 72.952C94.2328 72.8773 94.2008 72.776 94.2008 72.648V71.312H92.2568V72.648C92.2568 72.776 92.2222 72.8773 92.1528 72.952C92.0888 73.0213 91.9902 73.056 91.8568 73.056ZM96.6224 73.048C96.4944 73.048 96.3958 73.0107 96.3264 72.936C96.2571 72.856 96.2224 72.7467 96.2224 72.608V69.488C96.2224 69.3493 96.2571 69.2427 96.3264 69.168C96.3958 69.0933 96.4944 69.056 96.6224 69.056C96.7504 69.056 96.8491 69.0933 96.9184 69.168C96.9931 69.2427 97.0304 69.3493 97.0304 69.488V72.608C97.0304 72.7467 96.9958 72.856 96.9264 72.936C96.8571 73.0107 96.7558 73.048 96.6224 73.048ZM96.6224 68.224C96.4624 68.224 96.3371 68.184 96.2464 68.104C96.1611 68.024 96.1184 67.912 96.1184 67.768C96.1184 67.6187 96.1611 67.5067 96.2464 67.432C96.3371 67.352 96.4624 67.312 96.6224 67.312C96.7824 67.312 96.9051 67.352 96.9904 67.432C97.0811 67.5067 97.1264 67.6187 97.1264 67.768C97.1264 67.912 97.0811 68.024 96.9904 68.104C96.9051 68.184 96.7824 68.224 96.6224 68.224ZM101.715 73.072C101.443 73.072 101.176 73.0453 100.915 72.992C100.654 72.9333 100.427 72.848 100.235 72.736C100.155 72.6933 100.099 72.6427 100.067 72.584C100.035 72.52 100.022 72.456 100.027 72.392C100.032 72.3227 100.054 72.2667 100.091 72.224C100.134 72.176 100.187 72.1467 100.251 72.136C100.32 72.1253 100.4 72.144 100.491 72.192C100.662 72.288 100.854 72.36 101.067 72.408C101.28 72.4507 101.491 72.472 101.699 72.472C102.062 72.472 102.32 72.424 102.475 72.328C102.635 72.2267 102.715 72.0773 102.715 71.88C102.715 71.6987 102.651 71.56 102.523 71.464C102.395 71.368 102.214 71.32 101.979 71.32H101.275C101.174 71.32 101.094 71.2933 101.035 71.24C100.976 71.1867 100.947 71.1147 100.947 71.024C100.947 70.928 100.976 70.856 101.035 70.808C101.094 70.7547 101.174 70.728 101.275 70.728H101.891C102.099 70.728 102.264 70.6827 102.387 70.592C102.515 70.496 102.579 70.3653 102.579 70.2C102.579 70.0187 102.51 69.8773 102.371 69.776C102.232 69.6747 101.998 69.624 101.667 69.624C101.47 69.624 101.278 69.6453 101.091 69.688C100.904 69.7307 100.726 69.7947 100.555 69.88C100.443 69.9333 100.35 69.9467 100.275 69.92C100.2 69.8933 100.144 69.8453 100.107 69.776C100.075 69.7013 100.072 69.6267 100.099 69.552C100.126 69.472 100.187 69.408 100.283 69.36C100.502 69.2427 100.736 69.1573 100.987 69.104C101.238 69.0507 101.504 69.024 101.787 69.024C102.294 69.024 102.675 69.1227 102.931 69.32C103.192 69.512 103.323 69.7787 103.323 70.12C103.323 70.3707 103.238 70.5813 103.067 70.752C102.902 70.9173 102.68 71.016 102.403 71.048V70.944C102.728 70.96 102.987 71.056 103.179 71.232C103.371 71.4027 103.467 71.6293 103.467 71.912C103.467 72.264 103.318 72.5467 103.019 72.76C102.72 72.968 102.286 73.072 101.715 73.072ZM105.674 73.072C105.402 73.072 105.156 73.0187 104.938 72.912C104.724 72.8053 104.556 72.6613 104.434 72.48C104.311 72.2987 104.25 72.0933 104.25 71.864C104.25 71.576 104.322 71.3493 104.466 71.184C104.615 71.0133 104.858 70.8933 105.194 70.824C105.535 70.7493 105.994 70.712 106.57 70.712H106.946V71.208H106.578C106.194 71.208 105.89 71.2267 105.666 71.264C105.442 71.3013 105.282 71.3653 105.186 71.456C105.095 71.5413 105.05 71.6613 105.05 71.816C105.05 72.0187 105.119 72.184 105.258 72.312C105.396 72.4347 105.588 72.496 105.834 72.496C106.031 72.496 106.204 72.4507 106.354 72.36C106.503 72.264 106.62 72.136 106.706 71.976C106.796 71.816 106.842 71.632 106.842 71.424V70.504C106.842 70.2 106.778 69.9813 106.65 69.848C106.522 69.7147 106.311 69.648 106.018 69.648C105.847 69.648 105.668 69.6693 105.482 69.712C105.3 69.7547 105.111 69.8267 104.914 69.928C104.823 69.9707 104.746 69.984 104.682 69.968C104.618 69.952 104.567 69.9173 104.53 69.864C104.492 69.8053 104.471 69.744 104.466 69.68C104.466 69.6107 104.482 69.544 104.514 69.48C104.551 69.416 104.612 69.368 104.698 69.336C104.932 69.224 105.164 69.144 105.394 69.096C105.623 69.048 105.839 69.024 106.042 69.024C106.399 69.024 106.692 69.08 106.922 69.192C107.156 69.304 107.33 69.4747 107.442 69.704C107.554 69.9333 107.61 70.2293 107.61 70.592V72.648C107.61 72.776 107.578 72.8773 107.514 72.952C107.45 73.0213 107.356 73.056 107.234 73.056C107.116 73.056 107.023 73.0213 106.954 72.952C106.884 72.8773 106.85 72.776 106.85 72.648V72.128H106.922C106.879 72.3253 106.799 72.496 106.682 72.64C106.57 72.7787 106.428 72.8853 106.258 72.96C106.087 73.0347 105.892 73.072 105.674 73.072ZM108.952 73.048C108.856 73.048 108.776 73.0213 108.712 72.968C108.654 72.9093 108.622 72.8373 108.616 72.752C108.616 72.6667 108.654 72.5733 108.728 72.472L110.08 70.784V71.184L108.816 69.608C108.731 69.512 108.691 69.4213 108.696 69.336C108.702 69.2453 108.736 69.1733 108.8 69.12C108.864 69.0667 108.942 69.04 109.032 69.04C109.134 69.04 109.216 69.0587 109.28 69.096C109.35 69.128 109.414 69.184 109.472 69.264L110.536 70.616H110.248L111.32 69.264C111.379 69.184 111.44 69.128 111.504 69.096C111.574 69.0587 111.656 69.04 111.752 69.04C111.848 69.04 111.926 69.0693 111.984 69.128C112.048 69.1813 112.08 69.2533 112.08 69.344C112.086 69.4293 112.048 69.52 111.968 69.616L110.704 71.168V70.808L112.056 72.472C112.136 72.568 112.174 72.6613 112.168 72.752C112.168 72.8373 112.136 72.9093 112.072 72.968C112.008 73.0213 111.928 73.048 111.832 73.048C111.736 73.048 111.654 73.0293 111.584 72.992C111.52 72.9547 111.456 72.8987 111.392 72.824L110.248 71.384H110.52L109.384 72.824C109.326 72.8933 109.262 72.9493 109.192 72.992C109.128 73.0293 109.048 73.048 108.952 73.048ZM114.801 73.072C114.407 73.072 114.065 72.9893 113.777 72.824C113.495 72.6587 113.273 72.424 113.113 72.12C112.953 71.816 112.873 71.4587 112.873 71.048C112.873 70.7333 112.919 70.4533 113.009 70.208C113.1 69.9627 113.228 69.752 113.393 69.576C113.564 69.3947 113.767 69.2587 114.001 69.168C114.241 69.072 114.508 69.024 114.801 69.024C115.191 69.024 115.527 69.1067 115.809 69.272C116.097 69.4373 116.321 69.672 116.481 69.976C116.641 70.2747 116.721 70.632 116.721 71.048C116.721 71.3573 116.676 71.6373 116.585 71.888C116.495 72.1387 116.364 72.352 116.193 72.528C116.028 72.704 115.825 72.84 115.585 72.936C115.351 73.0267 115.089 73.072 114.801 73.072ZM114.801 72.448C115.02 72.448 115.212 72.3947 115.377 72.288C115.543 72.1813 115.671 72.024 115.761 71.816C115.857 71.608 115.905 71.352 115.905 71.048C115.905 70.5893 115.804 70.2427 115.601 70.008C115.399 69.7733 115.132 69.656 114.801 69.656C114.577 69.656 114.383 69.7093 114.217 69.816C114.052 69.9173 113.921 70.072 113.825 70.28C113.735 70.488 113.689 70.744 113.689 71.048C113.689 71.5013 113.791 71.848 113.993 72.088C114.196 72.328 114.465 72.448 114.801 72.448ZM117.666 74.096C117.56 74.096 117.474 74.064 117.41 74C117.346 73.936 117.314 73.8453 117.314 73.728V72.744C117.314 72.488 117.445 72.36 117.706 72.36H118.114L117.634 72.528C117.778 72.336 117.893 72.1333 117.978 71.92C118.064 71.7067 118.125 71.464 118.162 71.192C118.205 70.9147 118.226 70.5947 118.226 70.232V69.552C118.226 69.408 118.264 69.296 118.338 69.216C118.418 69.136 118.533 69.096 118.682 69.096H120.658C120.802 69.096 120.914 69.136 120.994 69.216C121.074 69.296 121.114 69.408 121.114 69.552V72.736L120.738 72.36H121.354C121.477 72.36 121.57 72.392 121.634 72.456C121.704 72.52 121.738 72.616 121.738 72.744V73.728C121.738 73.9733 121.624 74.096 121.394 74.096C121.282 74.096 121.197 74.064 121.138 74C121.08 73.936 121.05 73.8453 121.05 73.728V73H118.01V73.728C118.01 73.9733 117.896 74.096 117.666 74.096ZM118.498 72.36H120.346V69.728H118.93V70.4C118.93 70.768 118.893 71.1253 118.818 71.472C118.744 71.8187 118.637 72.1147 118.498 72.36ZM122.919 73.056C122.839 73.056 122.769 73.04 122.711 73.008C122.657 72.9813 122.615 72.936 122.583 72.872C122.556 72.808 122.543 72.7253 122.543 72.624V69.432C122.543 69.304 122.575 69.208 122.639 69.144C122.703 69.0747 122.793 69.04 122.911 69.04C123.028 69.04 123.119 69.0747 123.183 69.144C123.247 69.208 123.279 69.304 123.279 69.432V72.2H123.071L125.239 69.304C125.292 69.2347 125.353 69.1733 125.423 69.12C125.492 69.0667 125.585 69.04 125.703 69.04C125.783 69.04 125.849 69.056 125.903 69.088C125.956 69.1147 125.996 69.16 126.023 69.224C126.055 69.288 126.071 69.3707 126.071 69.472V72.664C126.071 72.7867 126.039 72.8827 125.975 72.952C125.916 73.0213 125.828 73.056 125.711 73.056C125.588 73.056 125.495 73.0213 125.431 72.952C125.367 72.8827 125.335 72.7867 125.335 72.664V69.896H125.551L123.375 72.8C123.327 72.864 123.268 72.9227 123.199 72.976C123.135 73.0293 123.041 73.056 122.919 73.056Z" fill="#DA9D27"/>
</g>
<defs>
<clipPath id="clip0_60_2818">
<rect width="130" height="80" fill="white" transform="translate(0.15332)"/>
</clipPath>
</defs>
</svg>
