<svg width="164" height="96" viewBox="0 0 164 96" fill="none" xmlns="http://www.w3.org/2000/svg">
<g clip-path="url(#clip0_60_2070)">
<path d="M39.1019 69.704C34.2379 69.704 30.0779 68.744 26.6219 66.824C23.1659 64.904 20.4993 62.216 18.6219 58.76C16.7873 55.2613 15.8699 51.144 15.8699 46.408C15.8699 42.8667 16.3819 39.688 17.4059 36.872C18.4726 34.0133 20.0086 31.5813 22.0139 29.576C24.0193 27.528 26.4513 25.9493 29.3099 24.84C32.2113 23.7307 35.4753 23.176 39.1019 23.176C41.2353 23.176 43.3899 23.4533 45.5659 24.008C47.7846 24.52 49.7046 25.2667 51.3259 26.248C52.3926 26.8453 53.1179 27.592 53.5019 28.488C53.8859 29.384 53.9926 30.28 53.8219 31.176C53.6939 32.072 53.3313 32.84 52.7339 33.48C52.1793 34.12 51.4753 34.5253 50.6219 34.696C49.7686 34.8667 48.8086 34.6747 47.7419 34.12C46.4619 33.352 45.1179 32.7973 43.7099 32.456C42.3019 32.1147 40.8726 31.944 39.4219 31.944C36.5633 31.944 34.1526 32.52 32.1899 33.672C30.2699 34.7813 28.8193 36.4027 27.8379 38.536C26.8566 40.6693 26.3659 43.2933 26.3659 46.408C26.3659 49.48 26.8566 52.104 27.8379 54.28C28.8193 56.456 30.2699 58.12 32.1899 59.272C34.1526 60.3813 36.5633 60.936 39.4219 60.936C40.7873 60.936 42.1739 60.7653 43.5819 60.424C45.0326 60.0827 46.4193 59.5493 47.7419 58.824C48.8513 58.2693 49.8326 58.0773 50.6859 58.248C51.5819 58.376 52.3073 58.76 52.8619 59.4C53.4593 59.9973 53.8219 60.7227 53.9499 61.576C54.1206 62.4293 54.0353 63.2827 53.6939 64.136C53.3526 64.9893 52.7126 65.7147 51.7739 66.312C50.1953 67.3787 48.2539 68.2107 45.9499 68.808C43.6459 69.4053 41.3633 69.704 39.1019 69.704ZM66.1479 69C64.4839 69 63.2039 68.552 62.3079 67.656C61.4119 66.76 60.9639 65.48 60.9639 63.816V29.064C60.9639 27.4 61.4119 26.12 62.3079 25.224C63.2039 24.328 64.4839 23.88 66.1479 23.88H81.6359C84.8359 23.88 87.5666 24.3493 89.8279 25.288C92.0893 26.2267 93.7959 27.5707 94.9479 29.32C96.1426 31.0693 96.7399 33.16 96.7399 35.592C96.7399 38.28 95.9719 40.5627 94.4359 42.44C92.8999 44.3173 90.7879 45.576 88.0999 46.216V45.192C91.2146 45.7467 93.6253 46.984 95.3319 48.904C97.0813 50.7813 97.9559 53.2347 97.9559 56.264C97.9559 60.2747 96.5693 63.4107 93.7959 65.672C91.0226 67.8907 87.2039 69 82.3399 69H66.1479ZM70.4359 61.64H80.9959C83.5559 61.64 85.4333 61.1493 86.6279 60.168C87.8226 59.144 88.4199 57.6507 88.4199 55.688C88.4199 53.7253 87.8226 52.2533 86.6279 51.272C85.4333 50.2907 83.5559 49.8 80.9959 49.8H70.4359V61.64ZM70.4359 42.44H79.9079C82.3826 42.44 84.2173 41.9707 85.4119 41.032C86.6066 40.0933 87.2039 38.6853 87.2039 36.808C87.2039 34.9733 86.6066 33.5867 85.4119 32.648C84.2173 31.7093 82.3826 31.24 79.9079 31.24H70.4359V42.44ZM110.648 69C108.984 69 107.704 68.552 106.808 67.656C105.912 66.76 105.464 65.48 105.464 63.816V29.064C105.464 27.4 105.912 26.12 106.808 25.224C107.704 24.328 108.984 23.88 110.648 23.88H123.128C130.851 23.88 136.803 25.8427 140.984 29.768C145.208 33.6507 147.32 39.1973 147.32 46.408C147.32 50.0347 146.765 53.256 145.656 56.072C144.589 58.8453 143.032 61.192 140.984 63.112C138.936 65.032 136.419 66.504 133.432 67.528C130.445 68.5093 127.011 69 123.128 69H110.648ZM115.384 60.872H122.552C124.984 60.872 127.096 60.5733 128.888 59.976C130.68 59.3787 132.173 58.4827 133.368 57.288C134.563 56.0933 135.459 54.6 136.056 52.808C136.653 50.9733 136.952 48.84 136.952 46.408C136.952 41.544 135.736 37.9387 133.304 35.592C130.915 33.2027 127.331 32.008 122.552 32.008H115.384V60.872Z" fill="#DA9D27"/>
<path d="M7.24992 88.09C6.74326 88.09 6.27659 88.03 5.84992 87.91C5.42326 87.79 5.05659 87.6167 4.74992 87.39C4.64992 87.3233 4.58326 87.2433 4.54992 87.15C4.51659 87.0567 4.50992 86.9667 4.52992 86.88C4.54992 86.7933 4.58992 86.7233 4.64992 86.67C4.71659 86.61 4.79659 86.5767 4.88992 86.57C4.98326 86.5567 5.08326 86.5833 5.18992 86.65C5.37659 86.7767 5.57326 86.88 5.77992 86.96C5.98659 87.04 6.20659 87.1 6.43992 87.14C6.67326 87.18 6.91992 87.2 7.17992 87.2C7.58659 87.2 7.91992 87.1567 8.17992 87.07C8.43992 86.9767 8.62992 86.84 8.74992 86.66C8.87659 86.48 8.93992 86.2533 8.93992 85.98C8.93992 85.5933 8.81992 85.3067 8.57992 85.12C8.33992 84.9333 7.96992 84.84 7.46992 84.84H6.12992C5.98326 84.84 5.86992 84.8067 5.78992 84.74C5.71659 84.6667 5.67992 84.56 5.67992 84.42C5.67992 84.2933 5.71659 84.1933 5.78992 84.12C5.86992 84.0467 5.98326 84.01 6.12992 84.01H7.30992C7.79659 84.01 8.15992 83.9167 8.39992 83.73C8.64659 83.5433 8.76992 83.2667 8.76992 82.9C8.76992 82.6667 8.70992 82.4633 8.58992 82.29C8.47659 82.11 8.30326 81.9733 8.06992 81.88C7.83659 81.7867 7.54326 81.74 7.18992 81.74C6.86992 81.74 6.55326 81.7833 6.23992 81.87C5.92659 81.9567 5.63992 82.0833 5.37992 82.25C5.26659 82.3167 5.16326 82.3467 5.06992 82.34C4.97659 82.3267 4.89992 82.29 4.83992 82.23C4.78659 82.17 4.74992 82.0967 4.72992 82.01C4.70992 81.9167 4.71659 81.8267 4.74992 81.74C4.78992 81.6533 4.85992 81.5767 4.95992 81.51C5.27992 81.29 5.63992 81.1267 6.03992 81.02C6.44659 80.9133 6.86326 80.86 7.28992 80.86C7.84992 80.86 8.31326 80.94 8.67992 81.1C9.05326 81.26 9.33326 81.4867 9.51992 81.78C9.70659 82.0667 9.79992 82.4033 9.79992 82.79C9.79992 83.2167 9.67326 83.5767 9.41992 83.87C9.16659 84.1633 8.82326 84.36 8.38992 84.46V84.31C8.88326 84.3767 9.26992 84.5633 9.54992 84.87C9.82992 85.17 9.96992 85.5633 9.96992 86.05C9.96992 86.4633 9.86992 86.8267 9.66992 87.14C9.47659 87.4467 9.17992 87.6833 8.77992 87.85C8.37992 88.01 7.86992 88.09 7.24992 88.09ZM12.4669 89.87C12.3469 89.87 12.2469 89.8367 12.1669 89.77C12.0935 89.71 12.0502 89.6267 12.0369 89.52C12.0302 89.42 12.0502 89.31 12.0969 89.19L12.7769 87.66V88.09L10.9069 83.74C10.8602 83.62 10.8435 83.5067 10.8569 83.4C10.8702 83.2933 10.9202 83.21 11.0069 83.15C11.0935 83.0833 11.2102 83.05 11.3569 83.05C11.4835 83.05 11.5835 83.08 11.6569 83.14C11.7302 83.2 11.7969 83.3033 11.8569 83.45L13.3669 87.18H13.0869L14.6169 83.45C14.6769 83.2967 14.7469 83.1933 14.8269 83.14C14.9069 83.08 15.0169 83.05 15.1569 83.05C15.2769 83.05 15.3702 83.0833 15.4369 83.15C15.5102 83.21 15.5535 83.2933 15.5669 83.4C15.5869 83.5 15.5702 83.61 15.5169 83.73L13.0169 89.48C12.9502 89.6333 12.8735 89.7367 12.7869 89.79C12.7069 89.8433 12.6002 89.87 12.4669 89.87ZM18.711 88.09C18.211 88.09 17.7777 87.9867 17.411 87.78C17.051 87.5667 16.771 87.27 16.571 86.89C16.371 86.5033 16.271 86.05 16.271 85.53C16.271 85.1433 16.3277 84.7967 16.441 84.49C16.5543 84.1767 16.7143 83.9133 16.921 83.7C17.1343 83.4867 17.391 83.3233 17.691 83.21C17.9977 83.09 18.3377 83.03 18.711 83.03C18.9443 83.03 19.1877 83.0667 19.441 83.14C19.701 83.2067 19.941 83.32 20.161 83.48C20.2477 83.5333 20.301 83.6 20.321 83.68C20.3477 83.7533 20.351 83.83 20.331 83.91C20.3177 83.99 20.281 84.06 20.221 84.12C20.1677 84.1733 20.101 84.2067 20.021 84.22C19.941 84.2267 19.8543 84.2033 19.761 84.15C19.601 84.0367 19.4377 83.9567 19.271 83.91C19.1043 83.8567 18.9443 83.83 18.791 83.83C18.551 83.83 18.3377 83.87 18.151 83.95C17.971 84.0233 17.8177 84.1333 17.691 84.28C17.5643 84.42 17.4677 84.5967 17.401 84.81C17.341 85.0233 17.311 85.2667 17.311 85.54C17.311 86.0867 17.4377 86.5167 17.691 86.83C17.951 87.1367 18.3177 87.29 18.791 87.29C18.9443 87.29 19.1043 87.2667 19.271 87.22C19.4377 87.1733 19.601 87.0933 19.761 86.98C19.8543 86.9267 19.941 86.9067 20.021 86.92C20.101 86.9333 20.1643 86.97 20.211 87.03C20.2643 87.0833 20.2977 87.15 20.311 87.23C20.331 87.3033 20.3277 87.38 20.301 87.46C20.2743 87.54 20.2177 87.6067 20.131 87.66C19.9177 87.8133 19.6843 87.9233 19.431 87.99C19.1843 88.0567 18.9443 88.09 18.711 88.09ZM22.8662 88.07C22.7062 88.07 22.5795 88.0267 22.4862 87.94C22.3995 87.8467 22.3562 87.72 22.3562 87.56V83.93H20.9962C20.7028 83.93 20.5562 83.7933 20.5562 83.52C20.5562 83.4 20.5962 83.3033 20.6762 83.23C20.7562 83.1567 20.8628 83.12 20.9962 83.12H24.7262C25.0195 83.12 25.1662 83.2533 25.1662 83.52C25.1662 83.6533 25.1262 83.7567 25.0462 83.83C24.9728 83.8967 24.8662 83.93 24.7262 83.93H23.3662V87.56C23.3662 87.72 23.3228 87.8467 23.2362 87.94C23.1562 88.0267 23.0328 88.07 22.8662 88.07ZM26.4165 89.87C26.2565 89.87 26.1332 89.8267 26.0465 89.74C25.9598 89.6533 25.9165 89.5267 25.9165 89.36V83.56C25.9165 83.3933 25.9598 83.2667 26.0465 83.18C26.1332 83.0933 26.2532 83.05 26.4065 83.05C26.5665 83.05 26.6898 83.0933 26.7765 83.18C26.8632 83.2667 26.9065 83.3933 26.9065 83.56V84.43L26.7965 84.22C26.9032 83.86 27.1132 83.5733 27.4265 83.36C27.7398 83.14 28.1098 83.03 28.5365 83.03C28.9698 83.03 29.3465 83.1333 29.6665 83.34C29.9932 83.5467 30.2432 83.8367 30.4165 84.21C30.5965 84.5833 30.6865 85.0333 30.6865 85.56C30.6865 86.0733 30.5965 86.5233 30.4165 86.91C30.2432 87.29 29.9965 87.5833 29.6765 87.79C29.3565 87.99 28.9765 88.09 28.5365 88.09C28.1165 88.09 27.7498 87.9833 27.4365 87.77C27.1232 87.5567 26.9132 87.2733 26.8065 86.92H26.9265V89.36C26.9265 89.5267 26.8798 89.6533 26.7865 89.74C26.6998 89.8267 26.5765 89.87 26.4165 89.87ZM28.2865 87.31C28.5665 87.31 28.8098 87.2433 29.0165 87.11C29.2232 86.9767 29.3832 86.78 29.4965 86.52C29.6098 86.26 29.6665 85.94 29.6665 85.56C29.6665 84.9867 29.5398 84.5533 29.2865 84.26C29.0398 83.9667 28.7065 83.82 28.2865 83.82C28.0132 83.82 27.7698 83.8867 27.5565 84.02C27.3498 84.1467 27.1898 84.34 27.0765 84.6C26.9632 84.86 26.9065 85.18 26.9065 85.56C26.9065 86.1267 27.0332 86.56 27.2865 86.86C27.5398 87.16 27.8732 87.31 28.2865 87.31ZM32.4321 88.06C32.2721 88.06 32.1488 88.0133 32.0621 87.92C31.9754 87.82 31.9321 87.6833 31.9321 87.51V83.61C31.9321 83.4367 31.9754 83.3033 32.0621 83.21C32.1488 83.1167 32.2721 83.07 32.4321 83.07C32.5921 83.07 32.7154 83.1167 32.8021 83.21C32.8954 83.3033 32.9421 83.4367 32.9421 83.61V87.51C32.9421 87.6833 32.8988 87.82 32.8121 87.92C32.7254 88.0133 32.5988 88.06 32.4321 88.06ZM32.4321 82.03C32.2321 82.03 32.0754 81.98 31.9621 81.88C31.8554 81.78 31.8021 81.64 31.8021 81.46C31.8021 81.2733 31.8554 81.1333 31.9621 81.04C32.0754 80.94 32.2321 80.89 32.4321 80.89C32.6321 80.89 32.7854 80.94 32.8921 81.04C33.0054 81.1333 33.0621 81.2733 33.0621 81.46C33.0621 81.64 33.0054 81.78 32.8921 81.88C32.7854 81.98 32.6321 82.03 32.4321 82.03ZM38.0712 88.07C37.9045 88.07 37.7778 88.0233 37.6912 87.93C37.6045 87.8367 37.5612 87.7033 37.5612 87.53V86.12C37.3812 86.22 37.1878 86.2967 36.9812 86.35C36.7812 86.4033 36.5678 86.43 36.3412 86.43C35.6345 86.43 35.1112 86.26 34.7712 85.92C34.4312 85.58 34.2612 85.0633 34.2612 84.37V83.56C34.2612 83.3933 34.3045 83.2667 34.3912 83.18C34.4778 83.0933 34.6012 83.05 34.7612 83.05C34.9212 83.05 35.0445 83.0933 35.1312 83.18C35.2245 83.2667 35.2712 83.3933 35.2712 83.56V84.29C35.2712 84.75 35.3645 85.0833 35.5512 85.29C35.7445 85.4967 36.0612 85.6 36.5012 85.6C36.7145 85.6 36.9045 85.5767 37.0712 85.53C37.2378 85.4767 37.3978 85.3967 37.5512 85.29V83.58C37.5512 83.2267 37.7212 83.05 38.0612 83.05C38.2278 83.05 38.3512 83.0967 38.4312 83.19C38.5178 83.2767 38.5612 83.4067 38.5612 83.58V87.53C38.5612 87.7033 38.5212 87.8367 38.4412 87.93C38.3612 88.0233 38.2378 88.07 38.0712 88.07ZM40.5864 88.06C40.4264 88.06 40.3031 88.0133 40.2164 87.92C40.1297 87.82 40.0864 87.6833 40.0864 87.51V83.61C40.0864 83.4367 40.1297 83.3033 40.2164 83.21C40.3031 83.1167 40.4264 83.07 40.5864 83.07C40.7464 83.07 40.8697 83.1167 40.9564 83.21C41.0497 83.3033 41.0964 83.4367 41.0964 83.61V87.51C41.0964 87.6833 41.0531 87.82 40.9664 87.92C40.8797 88.0133 40.7531 88.06 40.5864 88.06ZM40.5864 82.03C40.3864 82.03 40.2297 81.98 40.1164 81.88C40.0097 81.78 39.9564 81.64 39.9564 81.46C39.9564 81.2733 40.0097 81.1333 40.1164 81.04C40.2297 80.94 40.3864 80.89 40.5864 80.89C40.7864 80.89 40.9397 80.94 41.0464 81.04C41.1597 81.1333 41.2164 81.2733 41.2164 81.46C41.2164 81.64 41.1597 81.78 41.0464 81.88C40.9397 81.98 40.7864 82.03 40.5864 82.03ZM46.7822 88.07C46.6222 88.07 46.4955 88.0267 46.4022 87.94C46.3155 87.8467 46.2722 87.72 46.2722 87.56V83.93H44.9122C44.6189 83.93 44.4722 83.7933 44.4722 83.52C44.4722 83.4 44.5122 83.3033 44.5922 83.23C44.6722 83.1567 44.7789 83.12 44.9122 83.12H48.6422C48.9355 83.12 49.0822 83.2533 49.0822 83.52C49.0822 83.6533 49.0422 83.7567 48.9622 83.83C48.8889 83.8967 48.7822 83.93 48.6422 83.93H47.2822V87.56C47.2822 87.72 47.2389 87.8467 47.1522 87.94C47.0722 88.0267 46.9489 88.07 46.7822 88.07ZM51.3925 88.09C51.0525 88.09 50.7458 88.0233 50.4725 87.89C50.2058 87.7567 49.9958 87.5767 49.8425 87.35C49.6892 87.1233 49.6125 86.8667 49.6125 86.58C49.6125 86.22 49.7025 85.9367 49.8825 85.73C50.0692 85.5167 50.3725 85.3667 50.7925 85.28C51.2192 85.1867 51.7925 85.14 52.5125 85.14H52.9825V85.76H52.5225C52.0425 85.76 51.6625 85.7833 51.3825 85.83C51.1025 85.8767 50.9025 85.9567 50.7825 86.07C50.6692 86.1767 50.6125 86.3267 50.6125 86.52C50.6125 86.7733 50.6992 86.98 50.8725 87.14C51.0458 87.2933 51.2858 87.37 51.5925 87.37C51.8392 87.37 52.0558 87.3133 52.2425 87.2C52.4292 87.08 52.5758 86.92 52.6825 86.72C52.7958 86.52 52.8525 86.29 52.8525 86.03V84.88C52.8525 84.5 52.7725 84.2267 52.6125 84.06C52.4525 83.8933 52.1892 83.81 51.8225 83.81C51.6092 83.81 51.3858 83.8367 51.1525 83.89C50.9258 83.9433 50.6892 84.0333 50.4425 84.16C50.3292 84.2133 50.2325 84.23 50.1525 84.21C50.0725 84.19 50.0092 84.1467 49.9625 84.08C49.9158 84.0067 49.8892 83.93 49.8825 83.85C49.8825 83.7633 49.9025 83.68 49.9425 83.6C49.9892 83.52 50.0658 83.46 50.1725 83.42C50.4658 83.28 50.7558 83.18 51.0425 83.12C51.3292 83.06 51.5992 83.03 51.8525 83.03C52.2992 83.03 52.6658 83.1 52.9525 83.24C53.2458 83.38 53.4625 83.5933 53.6025 83.88C53.7425 84.1667 53.8125 84.5367 53.8125 84.99V87.56C53.8125 87.72 53.7725 87.8467 53.6925 87.94C53.6125 88.0267 53.4958 88.07 53.3425 88.07C53.1958 88.07 53.0792 88.0267 52.9925 87.94C52.9058 87.8467 52.8625 87.72 52.8625 87.56V86.91H52.9525C52.8992 87.1567 52.7992 87.37 52.6525 87.55C52.5125 87.7233 52.3358 87.8567 52.1225 87.95C51.9092 88.0433 51.6658 88.09 51.3925 88.09ZM58.4575 88.06C58.2975 88.06 58.1742 88.0133 58.0875 87.92C58.0008 87.82 57.9575 87.6833 57.9575 87.51V83.61C57.9575 83.4367 58.0008 83.3033 58.0875 83.21C58.1742 83.1167 58.2975 83.07 58.4575 83.07C58.6175 83.07 58.7408 83.1167 58.8275 83.21C58.9208 83.3033 58.9675 83.4367 58.9675 83.61V87.51C58.9675 87.6833 58.9242 87.82 58.8375 87.92C58.7508 88.0133 58.6242 88.06 58.4575 88.06ZM58.4575 82.03C58.2575 82.03 58.1008 81.98 57.9875 81.88C57.8808 81.78 57.8275 81.64 57.8275 81.46C57.8275 81.2733 57.8808 81.1333 57.9875 81.04C58.1008 80.94 58.2575 80.89 58.4575 80.89C58.6575 80.89 58.8108 80.94 58.9175 81.04C59.0308 81.1333 59.0875 81.2733 59.0875 81.46C59.0875 81.64 59.0308 81.78 58.9175 81.88C58.8108 81.98 58.6575 82.03 58.4575 82.03ZM60.9966 88.07C60.8366 88.07 60.7099 88.0267 60.6166 87.94C60.5299 87.8467 60.4866 87.72 60.4866 87.56V83.56C60.4866 83.3867 60.5299 83.26 60.6166 83.18C60.7099 83.0933 60.8366 83.05 60.9966 83.05C61.1566 83.05 61.2799 83.0933 61.3666 83.18C61.4532 83.26 61.4966 83.3867 61.4966 83.56V85.09H63.9266V83.56C63.9266 83.3867 63.9666 83.26 64.0466 83.18C64.1332 83.0933 64.2599 83.05 64.4266 83.05C64.5866 83.05 64.7099 83.0933 64.7966 83.18C64.8899 83.26 64.9366 83.3867 64.9366 83.56V87.56C64.9366 87.72 64.8899 87.8467 64.7966 87.94C64.7099 88.0267 64.5866 88.07 64.4266 88.07C64.2599 88.07 64.1332 88.0267 64.0466 87.94C63.9666 87.8467 63.9266 87.72 63.9266 87.56V85.89H61.4966V87.56C61.4966 87.72 61.4532 87.8467 61.3666 87.94C61.2866 88.0267 61.1632 88.07 60.9966 88.07ZM66.3836 89.37C66.2503 89.37 66.1436 89.33 66.0636 89.25C65.9836 89.17 65.9436 89.0567 65.9436 88.91V87.68C65.9436 87.36 66.1069 87.2 66.4336 87.2H66.9436L66.3436 87.41C66.5236 87.17 66.6669 86.9167 66.7736 86.65C66.8803 86.3833 66.9569 86.08 67.0036 85.74C67.0569 85.3933 67.0836 84.9933 67.0836 84.54V83.69C67.0836 83.51 67.1303 83.37 67.2236 83.27C67.3236 83.17 67.4669 83.12 67.6536 83.12H70.1236C70.3036 83.12 70.4436 83.17 70.5436 83.27C70.6436 83.37 70.6936 83.51 70.6936 83.69V87.67L70.2236 87.2H70.9936C71.1469 87.2 71.2636 87.24 71.3436 87.32C71.4303 87.4 71.4736 87.52 71.4736 87.68V88.91C71.4736 89.2167 71.3303 89.37 71.0436 89.37C70.9036 89.37 70.7969 89.33 70.7236 89.25C70.6503 89.17 70.6136 89.0567 70.6136 88.91V88H66.8136V88.91C66.8136 89.2167 66.6703 89.37 66.3836 89.37ZM67.4236 87.2H69.7336V83.91H67.9636V84.75C67.9636 85.21 67.9169 85.6567 67.8236 86.09C67.7303 86.5233 67.5969 86.8933 67.4236 87.2ZM72.9488 88.07C72.8488 88.07 72.7621 88.05 72.6888 88.01C72.6221 87.9767 72.5688 87.92 72.5288 87.84C72.4954 87.76 72.4788 87.6567 72.4788 87.53V83.54C72.4788 83.38 72.5188 83.26 72.5988 83.18C72.6788 83.0933 72.7921 83.05 72.9388 83.05C73.0854 83.05 73.1988 83.0933 73.2788 83.18C73.3588 83.26 73.3988 83.38 73.3988 83.54V87H73.1388L75.8488 83.38C75.9154 83.2933 75.9921 83.2167 76.0788 83.15C76.1654 83.0833 76.2821 83.05 76.4288 83.05C76.5288 83.05 76.6121 83.07 76.6788 83.11C76.7454 83.1433 76.7954 83.2 76.8288 83.28C76.8688 83.36 76.8888 83.4633 76.8888 83.59V87.58C76.8888 87.7333 76.8488 87.8533 76.7687 87.94C76.6954 88.0267 76.5854 88.07 76.4388 88.07C76.2854 88.07 76.1688 88.0267 76.0888 87.94C76.0088 87.8533 75.9688 87.7333 75.9688 87.58V84.12H76.2388L73.5188 87.75C73.4588 87.83 73.3854 87.9033 73.2988 87.97C73.2188 88.0367 73.1021 88.07 72.9488 88.07ZM78.9165 88C78.7498 88 78.6232 87.9567 78.5365 87.87C78.4498 87.7767 78.4065 87.65 78.4065 87.49V83.64C78.4065 83.4733 78.4498 83.3467 78.5365 83.26C78.6232 83.1667 78.7498 83.12 78.9165 83.12H80.8965C81.2965 83.12 81.6232 83.17 81.8765 83.27C82.1365 83.37 82.3265 83.5167 82.4465 83.71C82.5665 83.8967 82.6265 84.1267 82.6265 84.4C82.6265 84.7133 82.5198 84.9767 82.3065 85.19C82.0932 85.3967 81.8132 85.52 81.4665 85.56V85.43C81.8865 85.45 82.2098 85.57 82.4365 85.79C82.6698 86.01 82.7865 86.2933 82.7865 86.64C82.7865 87.06 82.6298 87.3933 82.3165 87.64C82.0032 87.88 81.5565 88 80.9765 88H78.9165ZM79.3565 87.35H80.9165C81.2165 87.35 81.4465 87.2867 81.6065 87.16C81.7732 87.0267 81.8565 86.8367 81.8565 86.59C81.8565 86.3433 81.7732 86.1567 81.6065 86.03C81.4465 85.9033 81.2165 85.84 80.9165 85.84H79.3565V87.35ZM79.3565 85.19H80.8265C81.0998 85.19 81.3098 85.1267 81.4565 85C81.6098 84.8733 81.6865 84.7 81.6865 84.48C81.6865 84.2533 81.6098 84.08 81.4565 83.96C81.3098 83.84 81.0998 83.78 80.8265 83.78H79.3565V85.19ZM84.4731 88.06C84.3131 88.06 84.1898 88.0133 84.1031 87.92C84.0165 87.82 83.9731 87.6833 83.9731 87.51V83.61C83.9731 83.4367 84.0165 83.3033 84.1031 83.21C84.1898 83.1167 84.3131 83.07 84.4731 83.07C84.6331 83.07 84.7565 83.1167 84.8431 83.21C84.9365 83.3033 84.9831 83.4367 84.9831 83.61V87.51C84.9831 87.6833 84.9398 87.82 84.8531 87.92C84.7665 88.0133 84.6398 88.06 84.4731 88.06ZM84.4731 82.03C84.2731 82.03 84.1165 81.98 84.0031 81.88C83.8965 81.78 83.8431 81.64 83.8431 81.46C83.8431 81.2733 83.8965 81.1333 84.0031 81.04C84.1165 80.94 84.2731 80.89 84.4731 80.89C84.6731 80.89 84.8265 80.94 84.9331 81.04C85.0465 81.1333 85.1031 81.2733 85.1031 81.46C85.1031 81.64 85.0465 81.78 84.9331 81.88C84.8265 81.98 84.6731 82.03 84.4731 82.03ZM86.4422 89.37C86.3089 89.37 86.2022 89.33 86.1222 89.25C86.0422 89.17 86.0022 89.0567 86.0022 88.91V87.68C86.0022 87.36 86.1655 87.2 86.4922 87.2H87.0022L86.4022 87.41C86.5822 87.17 86.7255 86.9167 86.8322 86.65C86.9389 86.3833 87.0155 86.08 87.0622 85.74C87.1155 85.3933 87.1422 84.9933 87.1422 84.54V83.69C87.1422 83.51 87.1889 83.37 87.2822 83.27C87.3822 83.17 87.5255 83.12 87.7122 83.12H90.1822C90.3622 83.12 90.5022 83.17 90.6022 83.27C90.7022 83.37 90.7522 83.51 90.7522 83.69V87.67L90.2822 87.2H91.0522C91.2055 87.2 91.3222 87.24 91.4022 87.32C91.4889 87.4 91.5322 87.52 91.5322 87.68V88.91C91.5322 89.2167 91.3889 89.37 91.1022 89.37C90.9622 89.37 90.8555 89.33 90.7822 89.25C90.7089 89.17 90.6722 89.0567 90.6722 88.91V88H86.8722V88.91C86.8722 89.2167 86.7289 89.37 86.4422 89.37ZM87.4822 87.2H89.7922V83.91H88.0222V84.75C88.0222 85.21 87.9755 85.6567 87.8822 86.09C87.7889 86.5233 87.6555 86.8933 87.4822 87.2ZM93.6973 89.87C93.5773 89.87 93.4773 89.8367 93.3973 89.77C93.324 89.71 93.2807 89.6267 93.2673 89.52C93.2607 89.42 93.2807 89.31 93.3273 89.19L94.0073 87.66V88.09L92.1373 83.74C92.0907 83.62 92.074 83.5067 92.0873 83.4C92.1007 83.2933 92.1507 83.21 92.2373 83.15C92.324 83.0833 92.4407 83.05 92.5873 83.05C92.714 83.05 92.814 83.08 92.8873 83.14C92.9607 83.2 93.0273 83.3033 93.0873 83.45L94.5973 87.18H94.3173L95.8473 83.45C95.9073 83.2967 95.9773 83.1933 96.0573 83.14C96.1373 83.08 96.2473 83.05 96.3873 83.05C96.5073 83.05 96.6007 83.0833 96.6673 83.15C96.7407 83.21 96.784 83.2933 96.7973 83.4C96.8173 83.5 96.8007 83.61 96.7473 83.73L94.2473 89.48C94.1807 89.6333 94.104 89.7367 94.0173 89.79C93.9373 89.8433 93.8307 89.87 93.6973 89.87ZM99.332 88.09C98.992 88.09 98.6853 88.0233 98.412 87.89C98.1453 87.7567 97.9353 87.5767 97.782 87.35C97.6286 87.1233 97.552 86.8667 97.552 86.58C97.552 86.22 97.642 85.9367 97.822 85.73C98.0086 85.5167 98.312 85.3667 98.732 85.28C99.1586 85.1867 99.732 85.14 100.452 85.14H100.922V85.76H100.462C99.982 85.76 99.602 85.7833 99.322 85.83C99.042 85.8767 98.842 85.9567 98.722 86.07C98.6086 86.1767 98.552 86.3267 98.552 86.52C98.552 86.7733 98.6386 86.98 98.812 87.14C98.9853 87.2933 99.2253 87.37 99.532 87.37C99.7786 87.37 99.9953 87.3133 100.182 87.2C100.369 87.08 100.515 86.92 100.622 86.72C100.735 86.52 100.792 86.29 100.792 86.03V84.88C100.792 84.5 100.712 84.2267 100.552 84.06C100.392 83.8933 100.129 83.81 99.762 83.81C99.5486 83.81 99.3253 83.8367 99.092 83.89C98.8653 83.9433 98.6286 84.0333 98.382 84.16C98.2686 84.2133 98.172 84.23 98.092 84.21C98.012 84.19 97.9486 84.1467 97.902 84.08C97.8553 84.0067 97.8286 83.93 97.822 83.85C97.822 83.7633 97.842 83.68 97.882 83.6C97.9286 83.52 98.0053 83.46 98.112 83.42C98.4053 83.28 98.6953 83.18 98.982 83.12C99.2686 83.06 99.5386 83.03 99.792 83.03C100.239 83.03 100.605 83.1 100.892 83.24C101.185 83.38 101.402 83.5933 101.542 83.88C101.682 84.1667 101.752 84.5367 101.752 84.99V87.56C101.752 87.72 101.712 87.8467 101.632 87.94C101.552 88.0267 101.435 88.07 101.282 88.07C101.135 88.07 101.019 88.0267 100.932 87.94C100.845 87.8467 100.802 87.72 100.802 87.56V86.91H100.892C100.839 87.1567 100.739 87.37 100.592 87.55C100.452 87.7233 100.275 87.8567 100.062 87.95C99.8486 88.0433 99.6053 88.09 99.332 88.09ZM107.07 88.07C106.91 88.07 106.787 88.0267 106.7 87.94C106.614 87.8467 106.57 87.72 106.57 87.56V83.93H104.8V84.52C104.8 85.0133 104.774 85.4533 104.72 85.84C104.667 86.22 104.584 86.55 104.47 86.83C104.357 87.11 104.21 87.3467 104.03 87.54C103.85 87.7333 103.63 87.89 103.37 88.01C103.257 88.0567 103.154 88.07 103.06 88.05C102.967 88.03 102.887 87.99 102.82 87.93C102.76 87.8633 102.72 87.7867 102.7 87.7C102.68 87.6133 102.69 87.5267 102.73 87.44C102.77 87.3467 102.844 87.27 102.95 87.21C103.13 87.11 103.277 86.9833 103.39 86.83C103.51 86.6767 103.604 86.4933 103.67 86.28C103.737 86.06 103.784 85.8033 103.81 85.51C103.844 85.2167 103.86 84.8767 103.86 84.49V83.69C103.86 83.51 103.907 83.37 104 83.27C104.1 83.17 104.244 83.12 104.43 83.12H107.01C107.19 83.12 107.33 83.17 107.43 83.27C107.53 83.37 107.58 83.51 107.58 83.69V87.56C107.58 87.72 107.534 87.8467 107.44 87.94C107.354 88.0267 107.23 88.07 107.07 88.07ZM109.61 88C109.443 88 109.317 87.9567 109.23 87.87C109.143 87.7767 109.1 87.65 109.1 87.49V83.56C109.1 83.3867 109.143 83.26 109.23 83.18C109.323 83.0933 109.45 83.05 109.61 83.05C109.77 83.05 109.893 83.0933 109.98 83.18C110.067 83.26 110.11 83.3867 110.11 83.56V84.81H111.5C112.127 84.81 112.603 84.9467 112.93 85.22C113.257 85.4867 113.42 85.8767 113.42 86.39C113.42 86.7167 113.343 87.0033 113.19 87.25C113.037 87.49 112.817 87.6767 112.53 87.81C112.243 87.9367 111.9 88 111.5 88H109.61ZM110.11 87.31H111.37C111.717 87.31 111.987 87.2367 112.18 87.09C112.373 86.9367 112.47 86.7033 112.47 86.39C112.47 86.0833 112.373 85.86 112.18 85.72C111.987 85.5733 111.717 85.5 111.37 85.5H110.11V87.31ZM115.049 88.07C114.889 88.07 114.763 88.0267 114.669 87.94C114.583 87.8467 114.539 87.72 114.539 87.56V83.56C114.539 83.3867 114.583 83.26 114.669 83.18C114.763 83.0933 114.889 83.05 115.049 83.05C115.209 83.05 115.333 83.0933 115.419 83.18C115.506 83.26 115.549 83.3867 115.549 83.56V85.09H117.979V83.56C117.979 83.3867 118.019 83.26 118.099 83.18C118.186 83.0933 118.313 83.05 118.479 83.05C118.639 83.05 118.763 83.0933 118.849 83.18C118.943 83.26 118.989 83.3867 118.989 83.56V87.56C118.989 87.72 118.943 87.8467 118.849 87.94C118.763 88.0267 118.639 88.07 118.479 88.07C118.313 88.07 118.186 88.0267 118.099 87.94C118.019 87.8467 117.979 87.72 117.979 87.56V85.89H115.549V87.56C115.549 87.72 115.506 87.8467 115.419 87.94C115.339 88.0267 115.216 88.07 115.049 88.07ZM121.006 88.06C120.846 88.06 120.723 88.0133 120.636 87.92C120.55 87.82 120.506 87.6833 120.506 87.51V83.61C120.506 83.4367 120.55 83.3033 120.636 83.21C120.723 83.1167 120.846 83.07 121.006 83.07C121.166 83.07 121.29 83.1167 121.376 83.21C121.47 83.3033 121.516 83.4367 121.516 83.61V87.51C121.516 87.6833 121.473 87.82 121.386 87.92C121.3 88.0133 121.173 88.06 121.006 88.06ZM121.006 82.03C120.806 82.03 120.65 81.98 120.536 81.88C120.43 81.78 120.376 81.64 120.376 81.46C120.376 81.2733 120.43 81.1333 120.536 81.04C120.65 80.94 120.806 80.89 121.006 80.89C121.206 80.89 121.36 80.94 121.466 81.04C121.58 81.1333 121.636 81.2733 121.636 81.46C121.636 81.64 121.58 81.78 121.466 81.88C121.36 81.98 121.206 82.03 121.006 82.03ZM127.372 88.09C127.032 88.09 126.699 88.0567 126.372 87.99C126.045 87.9167 125.762 87.81 125.522 87.67C125.422 87.6167 125.352 87.5533 125.312 87.48C125.272 87.4 125.255 87.32 125.262 87.24C125.269 87.1533 125.295 87.0833 125.342 87.03C125.395 86.97 125.462 86.9333 125.542 86.92C125.629 86.9067 125.729 86.93 125.842 86.99C126.055 87.11 126.295 87.2 126.562 87.26C126.829 87.3133 127.092 87.34 127.352 87.34C127.805 87.34 128.129 87.28 128.322 87.16C128.522 87.0333 128.622 86.8467 128.622 86.6C128.622 86.3733 128.542 86.2 128.382 86.08C128.222 85.96 127.995 85.9 127.702 85.9H126.822C126.695 85.9 126.595 85.8667 126.522 85.8C126.449 85.7333 126.412 85.6433 126.412 85.53C126.412 85.41 126.449 85.32 126.522 85.26C126.595 85.1933 126.695 85.16 126.822 85.16H127.592C127.852 85.16 128.059 85.1033 128.212 84.99C128.372 84.87 128.452 84.7067 128.452 84.5C128.452 84.2733 128.365 84.0967 128.192 83.97C128.019 83.8433 127.725 83.78 127.312 83.78C127.065 83.78 126.825 83.8067 126.592 83.86C126.359 83.9133 126.135 83.9933 125.922 84.1C125.782 84.1667 125.665 84.1833 125.572 84.15C125.479 84.1167 125.409 84.0567 125.362 83.97C125.322 83.8767 125.319 83.7833 125.352 83.69C125.385 83.59 125.462 83.51 125.582 83.45C125.855 83.3033 126.149 83.1967 126.462 83.13C126.775 83.0633 127.109 83.03 127.462 83.03C128.095 83.03 128.572 83.1533 128.892 83.4C129.219 83.64 129.382 83.9733 129.382 84.4C129.382 84.7133 129.275 84.9767 129.062 85.19C128.855 85.3967 128.579 85.52 128.232 85.56V85.43C128.639 85.45 128.962 85.57 129.202 85.79C129.442 86.0033 129.562 86.2867 129.562 86.64C129.562 87.08 129.375 87.4333 129.002 87.7C128.629 87.96 128.085 88.09 127.372 88.09ZM132.32 88.09C131.98 88.09 131.674 88.0233 131.4 87.89C131.134 87.7567 130.924 87.5767 130.77 87.35C130.617 87.1233 130.54 86.8667 130.54 86.58C130.54 86.22 130.63 85.9367 130.81 85.73C130.997 85.5167 131.3 85.3667 131.72 85.28C132.147 85.1867 132.72 85.14 133.44 85.14H133.91V85.76H133.45C132.97 85.76 132.59 85.7833 132.31 85.83C132.03 85.8767 131.83 85.9567 131.71 86.07C131.597 86.1767 131.54 86.3267 131.54 86.52C131.54 86.7733 131.627 86.98 131.8 87.14C131.974 87.2933 132.214 87.37 132.52 87.37C132.767 87.37 132.984 87.3133 133.17 87.2C133.357 87.08 133.504 86.92 133.61 86.72C133.724 86.52 133.78 86.29 133.78 86.03V84.88C133.78 84.5 133.7 84.2267 133.54 84.06C133.38 83.8933 133.117 83.81 132.75 83.81C132.537 83.81 132.314 83.8367 132.08 83.89C131.854 83.9433 131.617 84.0333 131.37 84.16C131.257 84.2133 131.16 84.23 131.08 84.21C131 84.19 130.937 84.1467 130.89 84.08C130.844 84.0067 130.817 83.93 130.81 83.85C130.81 83.7633 130.83 83.68 130.87 83.6C130.917 83.52 130.994 83.46 131.1 83.42C131.394 83.28 131.684 83.18 131.97 83.12C132.257 83.06 132.527 83.03 132.78 83.03C133.227 83.03 133.594 83.1 133.88 83.24C134.174 83.38 134.39 83.5933 134.53 83.88C134.67 84.1667 134.74 84.5367 134.74 84.99V87.56C134.74 87.72 134.7 87.8467 134.62 87.94C134.54 88.0267 134.424 88.07 134.27 88.07C134.124 88.07 134.007 88.0267 133.92 87.94C133.834 87.8467 133.79 87.72 133.79 87.56V86.91H133.88C133.827 87.1567 133.727 87.37 133.58 87.55C133.44 87.7233 133.264 87.8567 133.05 87.95C132.837 88.0433 132.594 88.09 132.32 88.09ZM136.419 88.06C136.299 88.06 136.199 88.0267 136.119 87.96C136.045 87.8867 136.005 87.7967 135.999 87.69C135.999 87.5833 136.045 87.4667 136.139 87.34L137.829 85.23V85.73L136.249 83.76C136.142 83.64 136.092 83.5267 136.099 83.42C136.105 83.3067 136.149 83.2167 136.229 83.15C136.309 83.0833 136.405 83.05 136.519 83.05C136.645 83.05 136.749 83.0733 136.829 83.12C136.915 83.16 136.995 83.23 137.069 83.33L138.399 85.02H138.039L139.379 83.33C139.452 83.23 139.529 83.16 139.609 83.12C139.695 83.0733 139.799 83.05 139.919 83.05C140.039 83.05 140.135 83.0867 140.209 83.16C140.289 83.2267 140.329 83.3167 140.329 83.43C140.335 83.5367 140.289 83.65 140.189 83.77L138.609 85.71V85.26L140.299 87.34C140.399 87.46 140.445 87.5767 140.439 87.69C140.439 87.7967 140.399 87.8867 140.319 87.96C140.239 88.0267 140.139 88.06 140.019 88.06C139.899 88.06 139.795 88.0367 139.709 87.99C139.629 87.9433 139.549 87.8733 139.469 87.78L138.039 85.98H138.379L136.959 87.78C136.885 87.8667 136.805 87.9367 136.719 87.99C136.639 88.0367 136.539 88.06 136.419 88.06ZM143.73 88.09C143.237 88.09 142.81 87.9867 142.45 87.78C142.097 87.5733 141.82 87.28 141.62 86.9C141.42 86.52 141.32 86.0733 141.32 85.56C141.32 85.1667 141.377 84.8167 141.49 84.51C141.603 84.2033 141.763 83.94 141.97 83.72C142.183 83.4933 142.437 83.3233 142.73 83.21C143.03 83.09 143.363 83.03 143.73 83.03C144.217 83.03 144.637 83.1333 144.99 83.34C145.35 83.5467 145.63 83.84 145.83 84.22C146.03 84.5933 146.13 85.04 146.13 85.56C146.13 85.9467 146.073 86.2967 145.96 86.61C145.847 86.9233 145.683 87.19 145.47 87.41C145.263 87.63 145.01 87.8 144.71 87.92C144.417 88.0333 144.09 88.09 143.73 88.09ZM143.73 87.31C144.003 87.31 144.243 87.2433 144.45 87.11C144.657 86.9767 144.817 86.78 144.93 86.52C145.05 86.26 145.11 85.94 145.11 85.56C145.11 84.9867 144.983 84.5533 144.73 84.26C144.477 83.9667 144.143 83.82 143.73 83.82C143.45 83.82 143.207 83.8867 143 84.02C142.793 84.1467 142.63 84.34 142.51 84.6C142.397 84.86 142.34 85.18 142.34 85.56C142.34 86.1267 142.467 86.56 142.72 86.86C142.973 87.16 143.31 87.31 143.73 87.31ZM147.311 89.37C147.178 89.37 147.071 89.33 146.991 89.25C146.911 89.17 146.871 89.0567 146.871 88.91V87.68C146.871 87.36 147.035 87.2 147.361 87.2H147.871L147.271 87.41C147.451 87.17 147.595 86.9167 147.701 86.65C147.808 86.3833 147.885 86.08 147.931 85.74C147.985 85.3933 148.011 84.9933 148.011 84.54V83.69C148.011 83.51 148.058 83.37 148.151 83.27C148.251 83.17 148.395 83.12 148.581 83.12H151.051C151.231 83.12 151.371 83.17 151.471 83.27C151.571 83.37 151.621 83.51 151.621 83.69V87.67L151.151 87.2H151.921C152.075 87.2 152.191 87.24 152.271 87.32C152.358 87.4 152.401 87.52 152.401 87.68V88.91C152.401 89.2167 152.258 89.37 151.971 89.37C151.831 89.37 151.725 89.33 151.651 89.25C151.578 89.17 151.541 89.0567 151.541 88.91V88H147.741V88.91C147.741 89.2167 147.598 89.37 147.311 89.37ZM148.351 87.2H150.661V83.91H148.891V84.75C148.891 85.21 148.845 85.6567 148.751 86.09C148.658 86.5233 148.525 86.8933 148.351 87.2ZM153.876 88.07C153.776 88.07 153.69 88.05 153.616 88.01C153.55 87.9767 153.496 87.92 153.456 87.84C153.423 87.76 153.406 87.6567 153.406 87.53V83.54C153.406 83.38 153.446 83.26 153.526 83.18C153.606 83.0933 153.72 83.05 153.866 83.05C154.013 83.05 154.126 83.0933 154.206 83.18C154.286 83.26 154.326 83.38 154.326 83.54V87H154.066L156.776 83.38C156.843 83.2933 156.92 83.2167 157.006 83.15C157.093 83.0833 157.21 83.05 157.356 83.05C157.456 83.05 157.54 83.07 157.606 83.11C157.673 83.1433 157.723 83.2 157.756 83.28C157.796 83.36 157.816 83.4633 157.816 83.59V87.58C157.816 87.7333 157.776 87.8533 157.696 87.94C157.623 88.0267 157.513 88.07 157.366 88.07C157.213 88.07 157.096 88.0267 157.016 87.94C156.936 87.8533 156.896 87.7333 156.896 87.58V84.12H157.166L154.446 87.75C154.386 87.83 154.313 87.9033 154.226 87.97C154.146 88.0367 154.03 88.07 153.876 88.07Z" fill="#DA9D27"/>
</g>
<defs>
<clipPath id="clip0_60_2070">
<rect width="163" height="96" fill="white" transform="translate(0.169922)"/>
</clipPath>
</defs>
</svg>
