<svg width="155" height="96" viewBox="0 0 155 96" fill="none" xmlns="http://www.w3.org/2000/svg">
<path d="M34.6019 69.704C29.7379 69.704 25.5779 68.744 22.1219 66.824C18.6659 64.904 15.9993 62.216 14.1219 58.76C12.2873 55.2613 11.3699 51.144 11.3699 46.408C11.3699 42.8667 11.8819 39.688 12.9059 36.872C13.9726 34.0133 15.5086 31.5813 17.5139 29.576C19.5193 27.528 21.9513 25.9493 24.8099 24.84C27.7113 23.7307 30.9753 23.176 34.6019 23.176C36.7353 23.176 38.8899 23.4533 41.0659 24.008C43.2846 24.52 45.2046 25.2667 46.8259 26.248C47.8926 26.8453 48.6179 27.592 49.0019 28.488C49.3859 29.384 49.4926 30.28 49.3219 31.176C49.1939 32.072 48.8313 32.84 48.2339 33.48C47.6793 34.12 46.9753 34.5253 46.1219 34.696C45.2686 34.8667 44.3086 34.6747 43.2419 34.12C41.9619 33.352 40.6179 32.7973 39.2099 32.456C37.8019 32.1147 36.3726 31.944 34.9219 31.944C32.0633 31.944 29.6526 32.52 27.6899 33.672C25.7699 34.7813 24.3193 36.4027 23.3379 38.536C22.3566 40.6693 21.8659 43.2933 21.8659 46.408C21.8659 49.48 22.3566 52.104 23.3379 54.28C24.3193 56.456 25.7699 58.12 27.6899 59.272C29.6526 60.3813 32.0633 60.936 34.9219 60.936C36.2873 60.936 37.6739 60.7653 39.0819 60.424C40.5326 60.0827 41.9193 59.5493 43.2419 58.824C44.3513 58.2693 45.3326 58.0773 46.1859 58.248C47.0819 58.376 47.8073 58.76 48.3619 59.4C48.9593 59.9973 49.3219 60.7227 49.4499 61.576C49.6206 62.4293 49.5353 63.2827 49.1939 64.136C48.8526 64.9893 48.2126 65.7147 47.2739 66.312C45.6953 67.3787 43.7539 68.2107 41.4499 68.808C39.1459 69.4053 36.8633 69.704 34.6019 69.704ZM61.6479 69C59.9839 69 58.7039 68.552 57.8079 67.656C56.9119 66.76 56.4639 65.48 56.4639 63.816V29.064C56.4639 27.4 56.9119 26.12 57.8079 25.224C58.7039 24.328 59.9839 23.88 61.6479 23.88H77.1359C80.3359 23.88 83.0666 24.3493 85.3279 25.288C87.5893 26.2267 89.2959 27.5707 90.4479 29.32C91.6426 31.0693 92.2399 33.16 92.2399 35.592C92.2399 38.28 91.4719 40.5627 89.9359 42.44C88.3999 44.3173 86.2879 45.576 83.5999 46.216V45.192C86.7146 45.7467 89.1253 46.984 90.8319 48.904C92.5813 50.7813 93.4559 53.2347 93.4559 56.264C93.4559 60.2747 92.0693 63.4107 89.2959 65.672C86.5226 67.8907 82.7039 69 77.8399 69H61.6479ZM65.9359 61.64H76.4959C79.0559 61.64 80.9333 61.1493 82.1279 60.168C83.3226 59.144 83.9199 57.6507 83.9199 55.688C83.9199 53.7253 83.3226 52.2533 82.1279 51.272C80.9333 50.2907 79.0559 49.8 76.4959 49.8H65.9359V61.64ZM65.9359 42.44H75.4079C77.8826 42.44 79.7173 41.9707 80.9119 41.032C82.1066 40.0933 82.7039 38.6853 82.7039 36.808C82.7039 34.9733 82.1066 33.5867 80.9119 32.648C79.7173 31.7093 77.8826 31.24 75.4079 31.24H65.9359V42.44ZM106.148 69C104.484 69 103.204 68.552 102.308 67.656C101.412 66.76 100.964 65.48 100.964 63.816V29.064C100.964 27.4 101.412 26.12 102.308 25.224C103.204 24.328 104.484 23.88 106.148 23.88H118.628C126.351 23.88 132.303 25.8427 136.484 29.768C140.708 33.6507 142.82 39.1973 142.82 46.408C142.82 50.0347 142.265 53.256 141.156 56.072C140.089 58.8453 138.532 61.192 136.484 63.112C134.436 65.032 131.919 66.504 128.932 67.528C125.945 68.5093 122.511 69 118.628 69H106.148ZM110.884 60.872H118.052C120.484 60.872 122.596 60.5733 124.388 59.976C126.18 59.3787 127.673 58.4827 128.868 57.288C130.063 56.0933 130.959 54.6 131.556 52.808C132.153 50.9733 132.452 48.84 132.452 46.408C132.452 41.544 131.236 37.9387 128.804 35.592C126.415 33.2027 122.831 32.008 118.052 32.008H110.884V60.872Z" fill="#DA9D27"/>
</svg>
