<svg width="24" height="25" viewBox="0 0 24 25" fill="none" xmlns="http://www.w3.org/2000/svg">
<path d="M23.04 0.580078H0.96C0.429 0.580078 0 1.00908 0 1.54008V23.6201C0 24.1511 0.429 24.5801 0.96 24.5801H23.04C23.571 24.5801 24 24.1511 24 23.6201V1.54008C24 1.00908 23.571 0.580078 23.04 0.580078ZM13.095 15.9041C11.778 17.7581 9.132 18.2981 7.068 17.5031C4.998 16.7141 3.528 14.5271 3.705 12.2981C3.75 9.57108 6.261 7.18008 8.988 7.27308C10.296 7.21308 11.526 7.78008 12.528 8.58108C12.099 9.06708 11.658 9.53508 11.184 9.97008C9.981 9.13908 8.268 8.90208 7.065 9.86208C5.343 11.0531 5.265 13.8641 6.921 15.1451C8.532 16.6061 11.577 15.8801 12.024 13.6421C11.016 13.6271 10.002 13.6421 8.994 13.6091C8.991 13.0061 8.988 12.4061 8.991 11.8031C10.677 11.7971 12.366 11.7941 14.055 11.8091C14.154 13.2281 13.965 14.7341 13.095 15.9041ZM20.37 13.3151C19.866 13.3211 19.362 13.3241 18.858 13.3271C18.852 13.8311 18.849 14.3351 18.849 14.8391H17.34C17.334 14.3351 17.334 13.8341 17.331 13.3301C16.827 13.3241 16.323 13.3211 15.819 13.3151V11.8121C16.323 11.8061 16.827 11.8031 17.331 11.8031C17.334 11.2991 17.34 10.7951 17.343 10.2911H18.849L18.858 11.8031C19.362 11.8091 19.866 11.8091 20.37 11.8121V13.3151Z" fill="#F8F1E9"/>
</svg>
