<svg width="24" height="24" viewBox="0 0 24 24" fill="none" xmlns="http://www.w3.org/2000/svg">
<g clip-path="url(#clip0_1_23898)">
<path d="M10.6928 18.3945C12.4007 18.3941 14.0593 17.8224 15.4047 16.7704L19.6346 21L20.9951 19.6395L16.7653 15.4099C17.8179 14.0645 18.39 12.4055 18.3904 10.6972C18.3904 6.45318 14.9371 3 10.6928 3C6.44848 3 2.99512 6.45318 2.99512 10.6972C2.99512 14.9413 6.44848 18.3945 10.6928 18.3945ZM10.6928 4.92431C13.8767 4.92431 16.466 7.51347 16.466 10.6972C16.466 13.881 13.8767 16.4702 10.6928 16.4702C7.50883 16.4702 4.91953 13.881 4.91953 10.6972C4.91953 7.51347 7.50883 4.92431 10.6928 4.92431Z" fill="#F4E2E2"/>
</g>
<defs>
<clipPath id="clip0_1_23898">
<rect width="18" height="18" fill="white" transform="translate(2.99512 3)"/>
</clipPath>
</defs>
</svg>
