<svg width="24" height="24" viewBox="0 0 24 24" fill="none" xmlns="http://www.w3.org/2000/svg">
<path d="M23.038 0H0.958047C0.427047 0 -0.00195312 0.429 -0.00195312 0.96V23.04C-0.00195312 23.571 0.427047 24 0.958047 24H23.038C23.569 24 23.998 23.571 23.998 23.04V0.96C23.998 0.429 23.569 0 23.038 0ZM18.457 8.691C18.466 8.832 18.466 8.979 18.466 9.123C18.466 13.527 15.112 18.6 8.98305 18.6C7.09305 18.6 5.34105 18.051 3.86505 17.106C4.13505 17.136 4.39305 17.148 4.66905 17.148C6.22905 17.148 7.66305 16.62 8.80605 15.726C7.34205 15.696 6.11205 14.736 5.69205 13.416C6.20505 13.491 6.66705 13.491 7.19505 13.356C6.44123 13.2029 5.76367 12.7934 5.2775 12.1974C4.79132 11.6013 4.52651 10.8552 4.52805 10.086V10.044C4.96905 10.293 5.48805 10.446 6.03105 10.467C5.57457 10.1628 5.20022 9.75063 4.94118 9.26709C4.68214 8.78355 4.54642 8.24356 4.54605 7.695C4.54605 7.074 4.70805 6.507 4.99905 6.015C5.83575 7.04501 6.87984 7.88743 8.06344 8.4875C9.24704 9.08757 10.5437 9.43186 11.869 9.498C11.398 7.233 13.09 5.4 15.124 5.4C16.084 5.4 16.948 5.802 17.557 6.45C18.31 6.309 19.03 6.027 19.672 5.649C19.423 6.42 18.901 7.071 18.208 7.482C18.88 7.41 19.528 7.224 20.128 6.963C19.675 7.629 19.108 8.22 18.457 8.691Z" fill="#979797"/>
</svg>
