<svg width="24" height="25" viewBox="0 0 24 25" fill="none" xmlns="http://www.w3.org/2000/svg">
<path d="M23.04 0.580078H0.96C0.429 0.580078 0 1.00908 0 1.54008V23.6201C0 24.1511 0.429 24.5801 0.96 24.5801H23.04C23.571 24.5801 24 24.1511 24 23.6201V1.54008C24 1.00908 23.571 0.580078 23.04 0.580078ZM18.459 9.27108C18.468 9.41208 18.468 9.55908 18.468 9.70308C18.468 14.1071 15.114 19.1801 8.985 19.1801C7.095 19.1801 5.343 18.6311 3.867 17.6861C4.137 17.7161 4.395 17.7281 4.671 17.7281C6.231 17.7281 7.665 17.2001 8.808 16.3061C7.344 16.2761 6.114 15.3161 5.694 13.9961C6.207 14.0711 6.669 14.0711 7.197 13.9361C6.44318 13.7829 5.76562 13.3735 5.27945 12.7774C4.79327 12.1813 4.52846 11.4353 4.53 10.6661V10.6241C4.971 10.8731 5.49 11.0261 6.033 11.0471C5.57653 10.7429 5.20217 10.3307 4.94313 9.84717C4.68409 9.36363 4.54837 8.82364 4.548 8.27508C4.548 7.65408 4.71 7.08708 5.001 6.59508C5.83771 7.62509 6.88179 8.4675 8.06539 9.06758C9.249 9.66765 10.5456 10.0119 11.871 10.0781C11.4 7.81308 13.092 5.98008 15.126 5.98008C16.086 5.98008 16.95 6.38208 17.559 7.03008C18.312 6.88908 19.032 6.60708 19.674 6.22908C19.425 7.00008 18.903 7.65108 18.21 8.06208C18.882 7.99008 19.53 7.80408 20.13 7.54308C19.677 8.20908 19.11 8.80008 18.459 9.27108Z" fill="#F8F1E9"/>
</svg>
