<svg width="24" height="25" viewBox="0 0 24 25" fill="none" xmlns="http://www.w3.org/2000/svg">
<g clip-path="url(#clip0_1_23887)">
<path d="M11.8502 9.58047C12.1502 9.58047 12.3002 9.28047 12.3002 8.83047V6.73047C12.3002 6.28047 12.1502 5.98047 11.8502 5.98047C11.5502 5.98047 11.4002 6.28047 11.4002 6.73047V8.83047C11.4002 9.28047 11.5502 9.58047 11.8502 9.58047ZM10.6502 18.4305C10.5002 18.7305 10.2002 18.8805 10.0502 18.8805C9.9002 18.8805 9.9002 18.8805 9.9002 18.7305V14.6805H9.0002V18.5805C9.0002 18.8805 9.0002 19.1805 9.1502 19.3305C9.3002 19.6305 9.4502 19.6305 9.7502 19.6305C10.0502 19.6305 10.3502 19.4805 10.8002 19.0305V19.6305H11.7002V14.6805H10.6502V18.4305ZM5.7002 13.9305H6.7502V19.6305H7.8002V13.9305H8.8502V12.8805H5.7002V13.9305ZM14.1002 14.5305C13.8002 14.5305 13.5002 14.8305 13.2002 15.1305V12.8805H12.3002V19.4805H13.2002V19.0305C13.5002 19.3305 13.8002 19.6305 14.1002 19.6305C14.4002 19.6305 14.7002 19.4805 14.8502 19.0305C14.8502 18.8805 15.0002 18.4305 15.0002 17.9805V16.0305C15.0002 15.5805 15.0002 15.2805 14.8502 14.9805C14.7002 14.8305 14.5502 14.5305 14.1002 14.5305ZM14.1002 18.1305C14.1002 18.5805 13.9502 18.7305 13.6502 18.7305C13.5002 18.7305 13.3502 18.7305 13.2002 18.5805V15.5805C13.3502 15.4305 13.5002 15.4305 13.6502 15.4305C13.9502 15.4305 14.1002 15.7305 14.1002 16.1805V18.1305ZM16.9502 14.5305C16.5002 14.5305 16.2002 14.6805 15.9002 14.9805C15.7502 15.2805 15.6002 15.5805 15.6002 16.1805V17.9805C15.6002 18.5805 15.7502 18.8805 15.9002 19.1805C16.2002 19.4805 16.5002 19.6305 16.9502 19.6305C17.4002 19.6305 17.8502 19.4805 18.0002 19.0305C18.1502 18.8805 18.1502 18.7305 18.1502 18.4305V17.6805H17.2502V18.2805C17.2502 18.5805 17.1002 18.5805 16.8002 18.5805C16.5002 18.5805 16.3502 18.2805 16.3502 17.8305V16.9305H18.1502V15.8805C18.1502 15.2805 18.0002 14.9805 17.8502 14.6805C17.8502 14.8305 17.4002 14.5305 16.9502 14.5305ZM17.4002 16.4805H16.5002V16.0305C16.5002 15.5805 16.6502 15.2805 16.9502 15.2805C17.2502 15.2805 17.4002 15.5805 17.4002 16.0305V16.4805Z" fill="#F8F1E9"/>
<path d="M0 0.580078V24.5801H24V0.580078H0ZM13.95 5.23008H14.85V9.28008C14.85 9.43008 14.85 9.58008 15 9.58008C15.15 9.58008 15.3 9.43008 15.6 9.13008V5.23008H16.5V10.1801H15.6V9.73008C15.3 10.1801 14.85 10.3301 14.55 10.3301C14.25 10.3301 14.1 10.1801 13.95 10.0301C13.95 9.88008 13.8 9.58008 13.8 9.28008V5.23008H13.95ZM10.5 6.88008C10.5 6.43008 10.5 5.98008 10.8 5.68008C11.1 5.38008 11.4 5.23008 11.85 5.23008C12.3 5.23008 12.6 5.38008 12.9 5.68008C13.05 5.98008 13.2 6.28008 13.2 6.88008V8.68008C13.2 9.28008 13.05 9.58008 12.9 9.88008C12.6 10.1801 12.3 10.3301 11.85 10.3301C11.4 10.3301 11.1 10.1801 10.8 9.88008C10.5 9.58008 10.5 9.28008 10.5 8.68008V6.88008ZM7.95 3.58008L8.7 6.28008L9.45 3.58008H10.5L9.3 7.63008V10.3301H8.25V7.63008C8.1 7.03008 7.95 6.43008 7.65 5.38008C7.35 4.78008 7.2 4.18008 6.9 3.58008H7.95ZM19.2 19.9301C19.05 20.6801 18.3 21.2801 17.55 21.4301C15.75 21.5801 13.8 21.5801 12 21.5801C10.2 21.5801 8.25 21.5801 6.45 21.4301C5.7 21.2801 4.95 20.8301 4.8 19.9301C4.5 18.7301 4.5 17.5301 4.5 16.3301C4.5 15.2801 4.5 14.0801 4.8 12.8801C4.95 12.1301 5.7 11.5301 6.45 11.3801C8.25 11.2301 10.2 11.2301 12 11.2301C13.8 11.2301 15.75 11.2301 17.55 11.3801C18.3 11.5301 19.05 11.9801 19.2 12.8801C19.5 14.0801 19.5 15.2801 19.5 16.3301C19.5 17.5301 19.5 18.7301 19.2 19.9301Z" fill="#F8F1E9"/>
</g>
<defs>
<clipPath id="clip0_1_23887">
<rect width="24" height="24" fill="white" transform="translate(0 0.580078)"/>
</clipPath>
</defs>
</svg>
