<svg width="24" height="24" viewBox="0 0 24 24" fill="none" xmlns="http://www.w3.org/2000/svg">
<g clip-path="url(#clip0_1_23895)">
<path d="M11.8467 9.00039C12.1466 9.00039 12.2966 8.70039 12.2966 8.25039V6.15039C12.2966 5.70039 12.1466 5.40039 11.8467 5.40039C11.5467 5.40039 11.3967 5.70039 11.3967 6.15039V8.25039C11.3967 8.70039 11.5467 9.00039 11.8467 9.00039ZM10.6468 17.8504C10.4968 18.1504 10.1968 18.3004 10.0468 18.3004C9.89685 18.3004 9.89685 18.3004 9.89685 18.1504V14.1004H8.99694V18.0004C8.99694 18.3004 8.99694 18.6004 9.14692 18.7504C9.29691 19.0504 9.44689 19.0504 9.74686 19.0504C10.0468 19.0504 10.3468 18.9004 10.7968 18.4504V19.0504H11.6967V14.1004H10.6468V17.8504ZM5.69727 13.3504H6.74716V19.0504H7.79706V13.3504H8.84695V12.3004H5.69727V13.3504ZM14.0964 13.9504C13.7965 13.9504 13.4965 14.2504 13.1965 14.5504V12.3004H12.2966V18.9004H13.1965V18.4504C13.4965 18.7504 13.7965 19.0504 14.0964 19.0504C14.3964 19.0504 14.6964 18.9004 14.8464 18.4504C14.8464 18.3004 14.9963 17.8504 14.9963 17.4004V15.4504C14.9963 15.0004 14.9963 14.7004 14.8464 14.4004C14.6964 14.2504 14.5464 13.9504 14.0964 13.9504ZM14.0964 17.5504C14.0964 18.0004 13.9464 18.1504 13.6465 18.1504C13.4965 18.1504 13.3465 18.1504 13.1965 18.0004V15.0004C13.3465 14.8504 13.4965 14.8504 13.6465 14.8504C13.9464 14.8504 14.0964 15.1504 14.0964 15.6004V17.5504ZM16.9461 13.9504C16.4962 13.9504 16.1962 14.1004 15.8962 14.4004C15.7463 14.7004 15.5963 15.0004 15.5963 15.6004V17.4004C15.5963 18.0004 15.7463 18.3004 15.8962 18.6004C16.1962 18.9004 16.4962 19.0504 16.9461 19.0504C17.3961 19.0504 17.8461 18.9004 17.996 18.4504C18.146 18.3004 18.146 18.1504 18.146 17.8504V17.1004H17.2461V17.7004C17.2461 18.0004 17.0961 18.0004 16.7962 18.0004C16.4962 18.0004 16.3462 17.7004 16.3462 17.2504V16.3504H18.146V15.3004C18.146 14.7004 17.996 14.4004 17.8461 14.1004C17.8461 14.2504 17.3961 13.9504 16.9461 13.9504ZM17.3961 15.9004H16.4962V15.4504C16.4962 15.0004 16.6462 14.7004 16.9461 14.7004C17.2461 14.7004 17.3961 15.0004 17.3961 15.4504V15.9004Z" fill="#979797"/>
<path d="M-0.00195312 0V24H23.9956V0H-0.00195312ZM13.9467 4.65H14.8466V8.7C14.8466 8.85 14.8466 9 14.9965 9C15.1465 9 15.2965 8.85 15.5965 8.55V4.65H16.4964V9.6H15.5965V9.15C15.2965 9.6 14.8466 9.75 14.5466 9.75C14.2466 9.75 14.0966 9.6 13.9467 9.45C13.9467 9.3 13.7967 9 13.7967 8.7V4.65H13.9467ZM10.497 6.3C10.497 5.85 10.497 5.4 10.797 5.1C11.0969 4.8 11.3969 4.65 11.8469 4.65C12.2968 4.65 12.5968 4.8 12.8968 5.1C13.0467 5.4 13.1967 5.7 13.1967 6.3V8.1C13.1967 8.7 13.0467 9 12.8968 9.3C12.5968 9.6 12.2968 9.75 11.8469 9.75C11.3969 9.75 11.0969 9.6 10.797 9.3C10.497 9 10.497 8.7 10.497 8.1V6.3ZM7.94725 3L8.69718 5.7L9.4471 3H10.497L9.29712 7.05V9.75H8.24722V7.05C8.09724 6.45 7.94725 5.85 7.64728 4.8C7.34731 4.2 7.19733 3.6 6.89736 3H7.94725ZM19.1961 19.35C19.0461 20.1 18.2962 20.7 17.5463 20.85C15.7465 21 13.7967 21 11.9968 21C10.197 21 8.24722 21 6.4474 20.85C5.69748 20.7 4.94755 20.25 4.79757 19.35C4.4976 18.15 4.4976 16.95 4.4976 15.75C4.4976 14.7 4.4976 13.5 4.79757 12.3C4.94755 11.55 5.69748 10.95 6.4474 10.8C8.24722 10.65 10.197 10.65 11.9968 10.65C13.7967 10.65 15.7465 10.65 17.5463 10.8C18.2962 10.95 19.0461 11.4 19.1961 12.3C19.4961 13.5 19.4961 14.7 19.4961 15.75C19.4961 16.95 19.4961 18.15 19.1961 19.35Z" fill="#979797"/>
</g>
<defs>
<clipPath id="clip0_1_23895">
<rect width="23.9976" height="24" fill="white" transform="translate(-0.00195312)"/>
</clipPath>
</defs>
</svg>
